<?xml version="1.0" encoding="UTF-8" standalone="no"?>
<svg
   id="Capa_1"
   data-name="Capa 1"
   viewBox="0 0 29.67 29.260002"
   version="1.1"
   sodipodi:docname="biblioteca.svg"
   width="29.67"
   height="29.26"
   inkscape:version="1.1.1 (3bf5ae0d25, 2021-09-20)"
   xmlns:inkscape="http://www.inkscape.org/namespaces/inkscape"
   xmlns:sodipodi="http://sodipodi.sourceforge.net/DTD/sodipodi-0.dtd"
   xmlns="http://www.w3.org/2000/svg"
   xmlns:svg="http://www.w3.org/2000/svg">
  <sodipodi:namedview
     id="namedview1063"
     pagecolor="#ffffff"
     bordercolor="#666666"
     borderopacity="1.0"
     inkscape:pageshadow="2"
     inkscape:pageopacity="0.0"
     inkscape:pagecheckerboard="0"
     showgrid="false"
     inkscape:zoom="7.7535042"
     inkscape:cx="14.767516"
     inkscape:cy="14.380595"
     inkscape:window-width="1366"
     inkscape:window-height="705"
     inkscape:window-x="-8"
     inkscape:window-y="-8"
     inkscape:window-maximized="1"
     inkscape:current-layer="Capa_1" />
  <defs
     id="defs1052">
    <style
       id="style1050">.cls-1{fill:#fff;}</style>
  </defs>
  <path
     d="m 8.4586825,28.749528 -0.57222,-0.167255 a 3.7649442,4.0350239 0 0 1 -2.672525,-3.8608 q 0,-10.45343 0,-20.9765496 a 3.4398195,3.6865763 0 0 1 3.491839,-3.74929681 H 23.531465 a 0.84532427,0.90596392 0 0 1 0.962369,1.02443611 q 0,10.2373923 0,20.4678153 a 0.9233542,0.98959136 0 0 1 -0.903847,0.982623 c -4.831353,0 -9.656204,0 -14.4875585,0 a 2.1263157,2.2788477 0 0 0 -2.11331,1.554076 2.1003057,2.2509719 0 0 0 1.950748,2.940899 H 23.498952 c 0.533204,0 0.864832,0.223006 0.968872,0.696895 a 0.84532427,0.90596392 0 0 1 -0.507195,1.045343 c 0,0 0,0 0,0.04181 z M 22.796683,20.644635 V 1.8284613 H 10.676033 V 20.644635 Z m -13.8308055,0 V 1.8284613 A 1.8141959,1.9443379 0 0 0 6.8850785,3.8564267 V 21.069741 c 0,0.07666 0,0.160286 0,0.271789 a 3.9014967,4.1813719 0 0 1 2.080799,-0.696895 z"
     id="path1054"
     style="stroke-width:0.673168" />
  <path
     d="M 16.307194,25.60653 H 9.0048925 a 0.83231928,0.89202601 0 0 1 -0.273105,-1.749208 1.0013841,1.0732188 0 0 1 0.312119,-0.04181 H 23.596489 a 0.8388218,0.898995 0 1 1 0,1.79799 z"
     id="path1056"
     style="stroke-width:0.673168" />
  <path
     class="cls-1"
     d="M 22.796683,20.644635 H 10.676033 V 1.8284613 h 12.12065 z"
     id="path1058"
     style="stroke-width:0.673168" />
  <path
     class="cls-1"
     d="m 8.9658775,20.644635 a 3.9014967,4.1813719 0 0 0 -2.067794,0.662051 c 0,-0.111504 0,-0.195131 0,-0.27179 V 3.8355198 a 1.8141959,1.9443379 0 0 1 2.067794,-2.0070585 z"
     id="path1060"
     style="stroke-width:0.673168" />
</svg>
