<?xml version="1.0" encoding="UTF-8" standalone="no"?>
<!-- Created with Inkscape (http://www.inkscape.org/) -->

<svg
   width="10"
   height="10"
   viewBox="0 0 2.6458 2.6458"
   version="1.1"
   id="svg844"
   inkscape:version="1.1.1 (3bf5ae0d25, 2021-09-20)"
   sodipodi:docname="especial.svg"
   xmlns:inkscape="http://www.inkscape.org/namespaces/inkscape"
   xmlns:sodipodi="http://sodipodi.sourceforge.net/DTD/sodipodi-0.dtd"
   xmlns="http://www.w3.org/2000/svg"
   xmlns:svg="http://www.w3.org/2000/svg">
  <sodipodi:namedview
     id="namedview846"
     pagecolor="#ffffff"
     bordercolor="#666666"
     borderopacity="1.0"
     inkscape:pageshadow="2"
     inkscape:pageopacity="0.0"
     inkscape:pagecheckerboard="0"
     inkscape:document-units="px"
     showgrid="false"
     units="px"
     scale-x="0.26458"
     inkscape:zoom="29.647587"
     inkscape:cx="7.0326128"
     inkscape:cy="5.8858079"
     inkscape:window-width="1366"
     inkscape:window-height="705"
     inkscape:window-x="-8"
     inkscape:window-y="-8"
     inkscape:window-maximized="1"
     inkscape:current-layer="layer1-5" />
  <defs
     id="defs841" />
  <g
     inkscape:label="Capa 1"
     inkscape:groupmode="layer"
     id="layer1">
    <g
       id="layer1-5"
       transform="matrix(0.01448853,0,0,0.01433728,1.2618056,0.15572125)"
       style="display:inline">
      <circle
         style="display:inline;fill:#cccccc;fill-opacity:1;stroke:#b3b3b3;stroke-width:0.272432;stroke-opacity:1"
         id="path57579-0-8"
         cx="6.8285003"
         cy="81.876656"
         r="88.363785"
         sodipodi:insensitive="true" />
      <circle
         style="display:inline;fill:#9800be;fill-opacity:1;stroke:#9800be;stroke-width:0.269353;stroke-opacity:1"
         id="path57579-0"
         cx="5.5864735"
         cy="80.405075"
         r="87.365326" />
      <ellipse
         style="display:inline;fill:#ffffff;fill-opacity:1;stroke:#ff7f00;stroke-width:0.246266;stroke-opacity:1"
         id="path57579"
         cx="5.5864735"
         cy="80.405075"
         rx="79.876862"
         ry="79.876869"
         sodipodi:insensitive="true" />
      <path
         id="rect48-3"
         style="display:inline;fill:#cccccc;fill-opacity:1;stroke:#cccccc;stroke-width:0.273873;stroke-opacity:1"
         d="m 6.9745909,16.964483 c -0.7442794,0 -1.3435891,0.59931 -1.3435891,1.343586 v 2.119251 c -0.0109,0.0716 -0.0424,0.135594 -0.0424,0.210323 v 6.873488 c 0,0.0747 0.0315,0.13877 0.0424,0.21032 v 7.4042 L -12.42887,45.430441 c -1.50152,0.66738 -2.544029,2.16866 -2.544029,3.92328 v 12.74599 c 0,0.28642 0.0281,0.56568 0.0811,0.83613 h -23.549434 c -2.37849,0 -4.293277,1.91478 -4.293277,4.29327 v 51.584759 c -2.101263,0.91512 -3.564642,3.00454 -3.564642,5.45031 0,3.29402 2.651866,5.94589 5.945892,5.94589 h 94.829351 c 3.29403,0 5.9459,-2.65187 5.9459,-5.94589 0,-2.42614 -1.44087,-4.50008 -3.51504,-5.42654 V 67.229111 c 0,-2.37849 -1.91478,-4.29327 -4.29327,-4.29327 H 29.220266 c 0.053,-0.27045 0.0817,-0.54971 0.0817,-0.83613 v -12.74599 c 0,-1.79846 -1.095521,-3.33094 -2.657722,-3.97185 -0.098,-0.0631 -0.20331,-0.12321 -0.31832,-0.17777 L 8.3182303,35.053301 v -6.10092 h 9.8438387 c 0.798341,0 1.441261,-0.64292 1.441261,-1.44125 v -6.873488 c 0,-0.798338 -0.64292,-1.440738 -1.441261,-1.440738 H 8.3182303 v -0.888836 c 0,-0.744276 -0.5993097,-1.343586 -1.3435894,-1.343586 z m -0.031,37.082488 a 8.9999999,8.9999999 0 0 1 8.9999581,8.99997 8.9999999,8.9999999 0 0 1 -8.9999581,8.999958 8.9999999,8.9999999 0 0 1 -8.9999657,-8.999958 8.9999999,8.9999999 0 0 1 8.9999657,-8.99997 z M -32.300524,76.606285 h 4.791956 c 1.76507,0 3.185853,1.421291 3.185853,3.186352 v 4.791413 c 0,1.765058 -1.420783,3.186342 -3.185853,3.186342 h -4.791956 c -1.765067,0 -3.18585,-1.421284 -3.18585,-3.186342 v -4.791413 c 0,-1.765061 1.420783,-3.186352 3.18585,-3.186352 z m 16.772625,0.061 h 4.791949 c 1.7650794,0 3.1858585,1.420771 3.1858585,3.185832 v 4.791923 c 0,1.765058 -1.4207791,3.185839 -3.1858585,3.185839 h -4.791949 c -1.76507,0 -3.18586,-1.420781 -3.18586,-3.185839 v -4.791923 c 0,-1.765061 1.42079,-3.185832 3.18586,-3.185832 z m 40.216662,0 h 4.791953 c 1.765071,0 3.185852,1.420771 3.185852,3.185832 v 4.791923 c 0,1.765058 -1.420781,3.185839 -3.185852,3.185839 h -4.791953 c -1.765071,0 -3.185852,-1.420781 -3.185862,-3.185839 v -4.791923 c 0,-1.765061 1.420791,-3.185832 3.185862,-3.185832 z m 16.933338,0 h 4.79196 c 1.76507,0 3.18585,1.420771 3.18585,3.185832 v 4.791923 c 0,1.765058 -1.42078,3.185839 -3.18585,3.185839 h -4.79196 c -1.76507,0 -3.18637,-1.420781 -3.18637,-3.185839 v -4.791923 c 0,-1.765061 1.4213,-3.185832 3.18637,-3.185832 z M 1.8493329,91.563968 h 9.9947261 c 1.76507,0 3.18585,1.420784 3.18585,3.185822 v 10.71763 9.14001 3.4556 c 0,0.1438 -0.11561,0.25942 -0.25941,0.25942 H -1.0771051 c -0.143809,0 -0.259419,-0.11562 -0.259419,-0.25942 v -3.4556 -9.14001 -10.71763 c 0,-1.765038 1.42078901,-3.185822 3.185857,-3.185822 z m -34.1498569,1.975571 h 4.791956 c 1.76507,0 3.185853,1.420771 3.185853,3.185822 v 4.791919 c 0,1.76506 -1.420783,3.18584 -3.185853,3.18584 h -4.791956 c -1.765067,0 -3.18585,-1.42078 -3.18585,-3.18584 v -4.791919 c 0,-1.765051 1.420783,-3.185822 3.18585,-3.185822 z m 16.772625,0.0605 h 4.791949 c 1.7650794,0 3.1858585,1.421281 3.1858585,3.186342 v 4.791399 c 0,1.76506 -1.4207791,3.18636 -3.1858585,3.18636 h -4.791949 c -1.76507,0 -3.18586,-1.4213 -3.18586,-3.18636 v -4.791459 c 0,-1.765061 1.42079,-3.186342 3.18586,-3.186342 z m 40.216662,0 h 4.791953 c 1.765071,0 3.185852,1.421281 3.185852,3.186342 v 4.791399 c 0,1.76506 -1.420781,3.18636 -3.185852,3.18636 h -4.791953 c -1.765071,0 -3.185852,-1.4213 -3.185862,-3.18636 v -4.791459 c 0,-1.765061 1.420791,-3.186342 3.185862,-3.186342 z m 16.933338,0 h 4.79196 c 1.76507,0 3.18585,1.421281 3.18585,3.186342 v 4.791399 c 0,1.76506 -1.42078,3.18636 -3.18585,3.18636 h -4.79196 c -1.76507,0 -3.18585,-1.4213 -3.18585,-3.18636 v -4.791459 c 0,-1.765061 1.42078,-3.186342 3.18585,-3.186342 z"
         sodipodi:insensitive="true" />
      <path
         id="rect48"
         style="display:inline;fill:#9800be;fill-opacity:1;stroke:#9800be;stroke-width:0.273873;stroke-opacity:1"
         d="m 5.4996547,15.315501 c -0.74428,0 -1.34359,0.59931 -1.34359,1.343586 v 2.119251 c -0.0109,0.0716 -0.0424,0.135594 -0.0424,0.210323 v 6.873488 c 0,0.0747 0.0315,0.13877 0.0424,0.21032 v 7.4042 l -18.0598807,10.30479 c -1.50152,0.66738 -2.544029,2.16866 -2.544029,3.92328 v 12.74599 c 0,0.28642 0.0281,0.56568 0.0811,0.83613 h -23.549434 c -2.37849,0 -4.293277,1.91478 -4.293277,4.29327 v 51.584931 c -2.101263,0.91512 -3.564642,3.00454 -3.564642,5.45031 0,3.29402 2.651866,5.94589 5.945892,5.94589 h 94.829351 c 3.29403,0 5.9459,-2.65187 5.9459,-5.94589 0,-2.42614 -1.44087,-4.50008 -3.51504,-5.42654 V 65.580129 c 0,-2.37849 -1.91478,-4.29327 -4.29327,-4.29327 h -23.39341 c 0.053,-0.27045 0.0817,-0.54971 0.0817,-0.83613 v -12.74599 c 0,-1.79846 -1.09552,-3.33094 -2.65772,-3.97185 -0.098,-0.0631 -0.20331,-0.12321 -0.31832,-0.17777 L 6.8432947,33.404319 v -6.10092 h 9.8438403 c 0.79834,0 1.44126,-0.64292 1.44126,-1.44125 v -6.873488 c 0,-0.798338 -0.64292,-1.440738 -1.44126,-1.440738 H 6.8432947 v -0.888836 c 0,-0.744276 -0.59931,-1.343586 -1.34359,-1.343586 z m -0.031,37.082488 a 8.9999999,8.9999999 0 0 1 8.9999603,8.99997 8.9999999,8.9999999 0 0 1 -8.9999603,8.99997 8.9999999,8.9999999 0 0 1 -8.9999702,-8.99997 8.9999999,8.9999999 0 0 1 8.9999702,-8.99997 z M -33.77547,74.957339 h 4.791956 c 1.76507,0 3.185853,1.4213 3.185853,3.18637 v 4.79144 c 0,1.76507 -1.420783,3.18636 -3.185853,3.18636 h -4.791956 c -1.765067,0 -3.18585,-1.42129 -3.18585,-3.18636 v -4.79144 c 0,-1.76507 1.420783,-3.18637 3.18585,-3.18637 z m 16.772625,0.061 h 4.791949 c 1.76508,0 3.18586,1.42078 3.18586,3.18585 v 4.79195 c 0,1.76507 -1.42078,3.18586 -3.18586,3.18586 h -4.791949 c -1.76507,0 -3.18586,-1.42079 -3.18586,-3.18586 v -4.79195 c 0,-1.76507 1.42079,-3.18585 3.18586,-3.18585 z m 40.21667,0 h 4.79195 c 1.76507,0 3.18585,1.42078 3.18585,3.18585 v 4.79195 c 0,1.76507 -1.42078,3.18586 -3.18585,3.18586 h -4.79195 c -1.76507,0 -3.18585,-1.42079 -3.18586,-3.18586 v -4.79195 c 0,-1.76507 1.42079,-3.18585 3.18586,-3.18585 z m 16.93333,0 h 4.79196 c 1.76507,0 3.18585,1.42078 3.18585,3.18585 v 4.79195 c 0,1.76507 -1.42078,3.18586 -3.18585,3.18586 h -4.79196 c -1.76507,0 -3.18637,-1.42079 -3.18637,-3.18586 v -4.79195 c 0,-1.76507 1.4213,-3.18585 3.18637,-3.18585 z M 0.37439446,89.915103 H 10.369125 c 1.76507,0 3.18585,1.42079 3.18585,3.185839 v 10.717668 9.14001 3.4556 c 0,0.1438 -0.11561,0.25942 -0.25941,0.25942 H -2.5520455 c -0.14381,0 -0.25942,-0.11562 -0.25942,-0.25942 v -3.4556 -9.14001 -10.717668 c 0,-1.765049 1.42079,-3.185839 3.18585996,-3.185839 z M -33.77547,91.890688 h 4.791956 c 1.76507,0 3.185853,1.420781 3.185853,3.185842 v 4.791933 c 0,1.765067 -1.420783,3.185847 -3.185853,3.185847 h -4.791956 c -1.765067,0 -3.18585,-1.42078 -3.18585,-3.185847 V 95.07653 c 0,-1.765061 1.420783,-3.185842 3.18585,-3.185842 z m 16.772625,0.0605 h 4.791949 c 1.76508,0 3.18586,1.421291 3.18586,3.186362 v 4.791413 c 0,1.765067 -1.42078,3.186367 -3.18586,3.186367 h -4.791949 c -1.76507,0 -3.18586,-1.4213 -3.18586,-3.186367 V 95.13749 c 0,-1.765071 1.42079,-3.186362 3.18586,-3.186362 z m 40.21667,0 h 4.79195 c 1.76507,0 3.18585,1.421291 3.18585,3.186362 v 4.791413 c 0,1.765067 -1.42078,3.186367 -3.18585,3.186367 h -4.79195 c -1.76507,0 -3.18585,-1.4213 -3.18586,-3.186367 V 95.13749 c 0,-1.765071 1.42079,-3.186362 3.18586,-3.186362 z m 16.93333,0 h 4.79196 c 1.76507,0 3.18585,1.421291 3.18585,3.186362 v 4.791413 c 0,1.765067 -1.42078,3.186367 -3.18585,3.186367 h -4.79196 c -1.76507,0 -3.18585,-1.4213 -3.18585,-3.186367 V 95.13749 c 0,-1.765071 1.42078,-3.186362 3.18585,-3.186362 z" />
    </g>
  </g>
</svg>
