<svg id="Capa_1" data-name="Capa 1" xmlns="http://www.w3.org/2000/svg" viewBox="0 0 42.06 42.06"><defs><style>.cls-1{fill:#fff;}</style></defs><path d="M23.18,1.44h7.89a1.44,1.44,0,0,1,.87,1.27c0,1.62,0,3.23,0,4.85a1.21,1.21,0,0,1-1.35,1.27H24.74c0,.91,0,1.77,0,2.63a.57.57,0,0,0,.47.66l18.09,6.76a2.06,2.06,0,0,1,1.25,1v4.85c-.5,1.15-1.56.84-2.49.91V41.86c0,1.23-.41,1.64-1.65,1.64H6.32A1.26,1.26,0,0,1,5,42.21V25.58H3.88a1.26,1.26,0,0,1-1.4-1.39V20.41a1.26,1.26,0,0,1,1-1.41l18.4-6.89a.55.55,0,0,0,.43-.61c0-2.83,0-5.66,0-8.5A1.47,1.47,0,0,1,23.18,1.44ZM4.94,23.09H16.47a4.22,4.22,0,0,1,.62,0,1.16,1.16,0,0,1,1,.91,1.24,1.24,0,0,1-1.32,1.55H7.51V41H9.88v-.52c0-2.94,0-5.89,0-8.83a3.71,3.71,0,1,1,7.42.3c0,2.86,0,5.72,0,8.58V41h2.45v-.52c0-3.44,0-6.88,0-10.31a3.72,3.72,0,0,1,5.57-3.32,3.67,3.67,0,0,1,1.87,3.38c0,3.44,0,6.88,0,10.31V41h2.53V34.36c0-1,0-2,0-3a3.7,3.7,0,0,1,7.39.37c0,2.93,0,5.86,0,8.79V41h2.38V25.58H31.41c-.45,0-.9,0-1.35,0A1.24,1.24,0,0,1,30,23.1a4.64,4.64,0,0,1,.53,0H42.07v-2L41.83,21q-9-3.36-18-6.72a1,1,0,0,0-.69,0Q18.43,16,13.71,17.8L5.29,21c-.13.05-.33.18-.33.27C4.93,21.84,4.94,22.44,4.94,23.09ZM24.69,41V30.68c0-.24,0-.49,0-.73a1.17,1.17,0,0,0-1.12-1.1,1.19,1.19,0,0,0-1.29,1.31q0,5.28,0,10.56c0,.09,0,.18,0,.29ZM12.38,41h2.43c0-3.14,0-6.26,0-9.38a1.17,1.17,0,0,0-1.16-1.11c-.78,0-1.28.53-1.28,1.42,0,2.9,0,5.8,0,8.7C12.36,40.75,12.37,40.87,12.38,41Zm22.25,0a1.35,1.35,0,0,0,0-.18c0-3,0-6,0-9.07a1.43,1.43,0,0,0-.21-.69,1.17,1.17,0,0,0-1.35-.53,1.22,1.22,0,0,0-.89,1.23v8.91c0,.1,0,.21,0,.33Zm-5.2-37.1H24.77V6.34h4.66Z" transform="translate(-2.48 -1.44)"/><path class="cls-1" d="M4.94,23.09c0-.65,0-1.25,0-1.85,0-.09.2-.22.33-.27l8.42-3.17q4.72-1.77,9.44-3.52a1,1,0,0,1,.69,0q9,3.35,18,6.72l.24.11v2H30.49a4.64,4.64,0,0,0-.53,0,1.24,1.24,0,0,0,.1,2.48c.45,0,.9,0,1.35,0h8.11V41H37.14v-.45c0-2.93,0-5.86,0-8.79a3.7,3.7,0,0,0-7.39-.37c-.05,1,0,2,0,3V41H27.19v-.48c0-3.43,0-6.87,0-10.31a3.67,3.67,0,0,0-1.87-3.38,3.72,3.72,0,0,0-5.57,3.32c0,3.43,0,6.87,0,10.31V41H17.3v-.46c0-2.86,0-5.72,0-8.58a3.71,3.71,0,1,0-7.42-.3c0,2.94,0,5.89,0,8.83V41H7.51V25.58h9.26A1.24,1.24,0,0,0,18.09,24a1.16,1.16,0,0,0-1-.91,4.22,4.22,0,0,0-.62,0H4.94Zm18.58-6.6a3.71,3.71,0,1,0,3.67,3.76A3.76,3.76,0,0,0,23.52,16.49Z" transform="translate(-2.48 -1.44)"/><path class="cls-1" d="M24.69,41H22.27c0-.11,0-.2,0-.29q0-5.28,0-10.56a1.19,1.19,0,0,1,1.29-1.31A1.17,1.17,0,0,1,24.67,30c0,.24,0,.49,0,.73V41Z" transform="translate(-2.48 -1.44)"/><path class="cls-1" d="M12.38,41c0-.13,0-.25,0-.37,0-2.9,0-5.8,0-8.7,0-.89.5-1.44,1.28-1.42a1.17,1.17,0,0,1,1.16,1.11c0,3.12,0,6.24,0,9.38Z" transform="translate(-2.48 -1.44)"/><path class="cls-1" d="M34.63,41h-2.4c0-.12,0-.23,0-.33V31.78a1.22,1.22,0,0,1,.89-1.23,1.17,1.17,0,0,1,1.35.53,1.43,1.43,0,0,1,.21.69c0,3,0,6.05,0,9.07A1.35,1.35,0,0,1,34.63,41Z" transform="translate(-2.48 -1.44)"/><path class="cls-1" d="M29.43,3.92V6.34H24.77V3.92Z" transform="translate(-2.48 -1.44)"/><path d="M23.52,16.49a3.71,3.71,0,1,1-3.77,3.66A3.75,3.75,0,0,1,23.52,16.49Zm0,4.92a1.2,1.2,0,0,0,1.19-1.24,1.21,1.21,0,1,0-1.19,1.24Z" transform="translate(-2.48 -1.44)"/><path class="cls-1" d="M23.49,21.41a1.21,1.21,0,1,1,1.19-1.24A1.19,1.19,0,0,1,23.49,21.41Z" transform="translate(-2.48 -1.44)"/></svg>