<?xml version="1.0" encoding="utf-8"?>
<!-- Generator: Adobe Illustrator 28.1.0, SVG Export Plug-In . SVG Version: 6.00 Build 0)  -->
<svg version="1.1" id="Capa_1" xmlns="http://www.w3.org/2000/svg" xmlns:xlink="http://www.w3.org/1999/xlink" x="0px" y="0px"
	 viewBox="0 0 512 512" style="enable-background:new 0 0 512 512;" xml:space="preserve">
<style>
	*{
		fill:#FFFFFF;
	}
</style>
<g>
	<g>
		<g>
			<path d="M407,182h-75V15c0-8.3-6.7-15-15-15H195c-8.3,0-15,6.7-15,15v167h-75c-12.7,0-19.6,14.9-11.5,24.6l150,180
				c6,7.2,17,7.2,23,0.1l152-180C426.7,197,419.7,182,407,182z M255.1,353.7L137,212h58c8.3,0,15-6.7,15-15V30h92v167
				c0,8.3,6.7,15,15,15h57.7L255.1,353.7z"/>
		</g>
	</g>
	<g>
		<g>
			<path d="M497,302h-60c-8.3,0-15,6.7-15,15v105H90V317c0-8.3-6.7-15-15-15H15c-8.3,0-15,6.7-15,15v150c0,24.8,20.2,45,45,45h422
				c24.8,0,45-20.2,45-45V317C512,308.7,505.3,302,497,302z M482,467c0,8.3-6.7,15-15,15H45c-8.3,0-15-6.7-15-15V332h30v105
				c0,8.3,6.7,15,15,15h362c8.3,0,15-6.7,15-15V332h30V467z"/>
		</g>
	</g>
</g>
</svg>
