<svg id="Capa_1" enable-background="new 0 0 512 512" height="512" viewBox="0 0 512 512" width="512" xmlns="http://www.w3.org/2000/svg">
<style type="text/css">
.sec-0{fill:#ff8540;}
</style>
<g><path class="sec-0" d="m505.664 150.755c-3.974-2.812-9.066-3.519-13.656-1.9l-170 60c-5.997 2.117-10.008 7.785-10.008 14.145v84h-112v-45c0-8.284-6.716-15-15-15h-170c-8.284 0-15 6.716-15 15v235c0 8.284 6.716 15 15 15h482c8.284 0 15-6.716 15-15v-334c0-4.868-2.362-9.434-6.336-12.245zm-475.664 126.245h140v30h-14c-8.284 0-15 6.716-15 15v160h-111zm141 60h170v145h-40v-80c0-8.284-6.716-15-15-15h-60c-8.284 0-15 6.716-15 15v80h-40zm70 145v-65h30v65zm241 0h-111v-160c0-8.284-6.716-15-15-15h-14v-73.387l140-49.412z"/><path class="sec-0" d="m248.126 210.768c4.827 2.977 10.92 2.977 15.747 0 2.824-1.742 69.16-43.685 69.16-133.734.001-42.477-34.556-77.034-77.033-77.034s-77.034 34.557-77.034 77.034c0 90.049 66.337 131.992 69.16 133.734zm7.874-180.768c25.935 0 47.034 21.099 47.034 47.034 0 30.457-9.128 57.827-27.129 81.349-7.265 9.493-14.615 16.455-19.928 20.908-15.197-12.709-47.01-46.036-47.01-102.256-.001-25.936 21.098-47.035 47.033-47.035z"/><path class="sec-0" d="m412 299c8.284 0 15-6.716 15-15v-18c0-8.284-6.716-15-15-15s-15 6.716-15 15v18c0 8.284 6.716 15 15 15z"/><path class="sec-0" d="m412 377c8.284 0 15-6.716 15-15v-18c0-8.284-6.716-15-15-15s-15 6.716-15 15v18c0 8.284 6.716 15 15 15z"/><path class="sec-0" d="m412 455c8.284 0 15-6.716 15-15v-18c0-8.284-6.716-15-15-15s-15 6.716-15 15v18c0 8.284 6.716 15 15 15z"/><path class="sec-0" d="m100 307c-8.284 0-15 6.716-15 15v18c0 8.284 6.716 15 15 15s15-6.716 15-15v-18c0-8.284-6.716-15-15-15z"/><path class="sec-0" d="m100 385c-8.284 0-15 6.716-15 15v18c0 8.284 6.716 15 15 15s15-6.716 15-15v-18c0-8.284-6.716-15-15-15z"/><circle class="sec-0" cx="256" cy="78" r="15"/></g></svg>