<svg id="Layer_1" enable-background="new 0 0 512 512" viewBox="0 0 512 512" xmlns="http://www.w3.org/2000/svg">
<style>
	*{
		fill:#ff8540;
	}
</style>
	<g><path d="m497 422.626h-13.354v-54.849c0-26.408-17.432-48.817-41.384-56.309v-30.482h48c8.284 0 15-6.716 15-15v-86.395c0-22.746-18.493-41.252-41.224-41.252h-21.776v-64.709c0-40.6-33.002-73.63-73.566-73.63h-225.393c-40.564 0-73.566 33.03-73.566 73.63v64.71h-21.776c-22.73 0-41.224 18.506-41.224 41.252v86.395c0 8.284 6.716 15 15 15h47.999v30.482c-23.952 7.492-41.384 29.901-41.384 56.309v54.849h-13.352c-8.284 0-15 6.716-15 15s6.716 15 15 15h36.593v22.945c0 20.087 16.331 36.429 36.405 36.429h37.093c20.073 0 36.404-16.342 36.404-36.429v-22.945h188.74v22.945c0 20.087 16.331 36.429 36.405 36.429h37.093c20.073 0 36.404-16.342 36.404-36.429v-22.945h36.863c8.284 0 15-6.716 15-15s-6.716-15.001-15-15.001zm-54.737-254.286h21.776c6.188 0 11.224 5.048 11.224 11.252v71.395h-33zm-298.96-138.34h225.394c21.122 0 38.776 15.134 42.732 35.142h-310.858c3.956-20.008 21.609-35.142 42.732-35.142zm268.96 65.142v87.352h-141.263v-87.352zm-312.527 0h141.264v87.352h-141.264zm-62.999 155.844v-71.395c0-6.204 5.035-11.252 11.224-11.252h21.775v82.646h-32.999zm94.758 224.585c0 3.545-2.873 6.429-6.404 6.429h-37.093c-3.532 0-6.405-2.884-6.405-6.429v-22.945h49.902zm23.777-52.945h-96.92v-54.849c0-15.979 12.979-28.979 28.932-28.979h67.988zm171.455 0h-141.455v-32.027h141.454v32.027zm0-62.027h-141.455v-27.596h141.454v27.596zm0-57.596h-141.455v-9.426c0-12.463 10.121-22.602 22.562-22.602h96.331c12.44 0 22.562 10.139 22.562 22.602zm-22.562-62.027h-96.331c-28.982 0-52.562 23.597-52.562 52.602v15.221h-55.536v-96.305h312.526v96.305h-55.536v-15.221c.001-29.006-23.579-52.602-52.561-52.602zm125.973 234.595c0 3.545-2.873 6.429-6.404 6.429h-37.093c-3.532 0-6.405-2.884-6.405-6.429v-22.945h49.902zm23.508-52.945h-96.92v-83.828h67.988c15.953 0 28.932 13 28.932 28.979z"/><circle cx="106.812" cy="380.709" r="15"/><circle cx="405.187" cy="380.709" r="15"/></g><g/><g/><g/><g/><g/><g/><g/><g/><g/><g/><g/><g/><g/><g/><g/></svg>