<svg id="Capa_1" enable-background="new 0 0 512 512" height="512" viewBox="0 0 512 512" width="512" xmlns="http://www.w3.org/2000/svg">
<style>
	*{
		fill:#ff8540;
	}
</style>
<g><path d="m114.951 312.442c-28.84 0-52.303 23.463-52.303 52.303 0 28.839 23.463 52.302 52.303 52.302s52.303-23.463 52.303-52.302c0-28.84-23.463-52.303-52.303-52.303zm0 74.605c-12.298 0-22.303-10.005-22.303-22.302 0-12.298 10.005-22.303 22.303-22.303s22.303 10.005 22.303 22.303-10.005 22.302-22.303 22.302z"/><path d="m440.146 71.903c-46.335-46.335-107.941-71.853-173.469-71.853s-127.134 25.518-173.47 71.854-71.854 107.941-71.854 173.47c0 17.005 1.906 34.455 3.573 44.962-15.595 19.622-24.926 44.436-24.926 71.392 0 42.724 19.153 82.158 55.39 114.039 26.709 23.498 53.343 34.678 54.463 35.142 1.914.895 7.429 1.925 12.081-.263 23.196-10.815 41.307-23.56 55.452-36.739 29.866 12.291 65.848 16.789 89.291 16.789 65.528 0 127.134-25.518 173.469-71.854 46.336-46.335 71.854-107.941 71.854-173.469s-25.518-127.134-71.854-173.47zm22.901 262.053c-44.9-4.298-80.133-42.227-80.133-88.235v-5.665c0-8.284-6.716-15-15-15h-18.929c-22.562 0-40.919-18.356-40.919-40.92 0-22.563 18.356-40.919 40.919-40.919h107.344c16.764 31.023 25.671 65.904 25.671 102.156 0 31.056-6.542 61.103-18.953 88.583zm-348.627-240.839c19.757-19.757 42.684-35.188 67.625-45.847v34.299c0 46.403-37.751 84.154-84.153 84.154h-31.373c10.687-26.874 26.836-51.541 47.901-72.606zm1.069 387.315c-20.162-10.142-85.489-48.443-85.489-118.704 0-46.837 38.104-84.941 84.941-84.941s84.942 38.104 84.942 84.941c0 .225.001.369.012.593.007.196.541 19.881-10.326 44.465-14.463 32.705-40.599 56.637-74.08 73.646zm303.444-82.803c-40.669 40.669-94.741 63.066-152.256 63.066-14.739 0-42.574-2.456-67.786-10.793 8.584-11.583 14.622-22.807 18.841-32.652 12.327-28.764 12.246-52.173 12.152-55.756-.125-63.273-51.64-114.709-114.941-114.709-23.125 0-44.673 6.871-62.721 18.669-.512-6.37-.867-13.3-.867-20.082 0-16.935 1.957-33.567 5.735-49.651h40.803c62.944 0 114.153-51.209 114.153-114.154v-44.55c17.621-4.588 35.942-6.968 54.631-6.968 57.515 0 111.587 22.397 152.256 63.067 6.383 6.383 12.314 13.096 17.781 20.101h-87.729c-39.105 0-70.919 31.814-70.919 70.919s31.814 70.92 70.919 70.92h4.292c4.153 53.086 43.401 96.466 94.496 106.906-8.233 12.733-17.864 24.692-28.84 35.667z"/></g></svg>