<svg id="Capa_1" enable-background="new 0 0 512 512" height="512" viewBox="0 0 512 512" width="512" xmlns="http://www.w3.org/2000/svg"><g><path d="m343.205 343.689h-59.943c-8.276 0-14.986 6.716-14.986 15v60.311c0 8.284 6.709 15 14.986 15h59.943c8.276 0 14.986-6.716 14.986-15v-60.311c0-8.284-6.709-15-14.986-15zm-14.986 60.311h-29.972v-30.311h29.972z"/><path d="m458.596 482h-32.024v-145.723l14.335 8.592c6.983 4.219 16.279 2.007 20.556-5.163 4.252-7.107 1.943-16.319-5.158-20.575l-195.316-117.065c-4.635-2.82-10.767-2.822-15.401.002l-195.31 117.063c-7.101 4.256-9.41 13.468-5.158 20.575 4.277 7.171 13.573 9.382 20.556 5.163l14.335-8.592v145.723h-32.025c-8.277 0-14.986 6.716-14.986 15s6.709 15 14.986 15h410.61c8.276 0 14.986-6.716 14.986-15s-6.71-15-14.986-15zm-280.234 0v-108.311h29.972v108.311zm59.943 0v-123.311c0-8.284-6.709-15-14.986-15h-59.943c-8.276 0-14.986 6.716-14.986 15v123.311h-38.409v-163.687l143.309-85.895 143.31 85.895v163.687z"/><path d="m384.353 239.768c4.822 2.977 10.909 2.977 15.731 0 .827-.51 20.469-12.783 39.853-37.684 32.286-41.473 39.063-85.548 39.063-115.22 0-47.897-38.93-86.864-86.782-86.864s-86.782 38.967-86.782 86.864c0 53.757 21.242 92.329 39.063 115.22 19.385 24.901 39.026 37.173 39.854 37.684zm7.865-209.768c31.326 0 56.81 25.509 56.81 56.864 0 35.889-10.769 68.134-32.007 95.841-9.19 11.987-18.488 20.535-24.803 25.679-6.322-5.15-15.618-13.695-24.805-25.679-21.238-27.707-32.007-59.952-32.007-95.841.002-31.355 25.487-56.864 56.812-56.864z"/><ellipse cx="392.87" cy="88" rx="14.986" ry="15"/></g></svg>