<?xml version="1.0" standalone="no"?>
<!DOCTYPE svg PUBLIC "-//W3C//DTD SVG 20010904//EN"
 "http://www.w3.org/TR/2001/REC-SVG-20010904/DTD/svg10.dtd">
<svg version="1.0" xmlns="http://www.w3.org/2000/svg"
 width="1024.000000pt" height="1024.000000pt" viewBox="0 0 1024.000000 1024.000000"
 preserveAspectRatio="xMidYMid meet">

<g transform="translate(0.000000,1024.000000) scale(0.100000,-0.100000)"
fill="#f00000" stroke="none">
<path d="M4770 9400 c-248 -34 -443 -123 -650 -295 -99 -83 -110 -98 -110
-149 0 -54 37 -91 92 -91 41 0 51 6 119 66 224 200 475 290 773 276 249 -11
471 -96 664 -254 46 -37 93 -74 105 -80 34 -20 73 -15 105 12 35 29 45 69 27
111 -14 33 -137 140 -230 199 -130 84 -324 160 -485 190 -101 20 -319 27 -410
15z"/>
<path d="M4775 8996 c-140 -27 -307 -114 -426 -224 -65 -59 -76 -87 -55 -137
29 -68 121 -80 172 -23 37 40 146 111 222 142 248 105 525 57 740 -128 62 -53
91 -63 133 -46 41 17 59 47 59 95 0 35 -6 47 -42 82 -115 109 -250 186 -393
223 -103 27 -311 35 -410 16z"/>
<path d="M4823 8595 c-75 -21 -181 -77 -230 -122 -33 -31 -43 -47 -43 -72 0
-49 25 -88 65 -101 44 -15 64 -8 152 50 138 92 269 87 390 -14 47 -40 78 -48
117 -32 43 18 66 51 66 95 0 27 -9 43 -43 75 -50 49 -149 103 -221 122 -65 17
-186 17 -253 -1z"/>
<path d="M5824 8216 c-43 -31 -45 -49 -42 -510 l3 -438 28 -24 28 -24 679 0
679 0 20 26 c21 26 21 37 21 479 l0 452 -26 24 -26 24 -671 3 c-580 2 -675 0
-693 -12z m1276 -485 c0 -235 -3 -352 -11 -356 -5 -4 -269 -4 -585 0 l-574 8
0 348 0 349 585 0 585 0 0 -349z"/>
<path d="M7483 8220 c-12 -5 -26 -18 -32 -29 -7 -13 -11 -171 -11 -471 l0
-451 25 -24 24 -25 676 0 677 0 29 29 29 29 0 436 c0 288 -4 443 -11 459 -24
54 -2 52 -719 54 -373 1 -675 -2 -687 -7z m1267 -496 l0 -357 -585 4 -585 4 0
353 0 352 585 0 585 0 0 -356z"/>
<path d="M4902 8135 c-18 -8 -37 -26 -42 -40 -6 -15 -10 -135 -10 -276 l0
-249 -117 0 c-65 0 -138 -5 -162 -11 -75 -17 -154 -60 -214 -118 -103 -98
-147 -203 -147 -354 0 -104 16 -146 65 -177 32 -20 44 -20 680 -18 l647 3 35
38 35 39 -4 131 c-3 124 -5 136 -35 199 -55 118 -155 205 -280 247 -50 17 -87
21 -188 21 l-125 0 0 259 c0 255 0 260 -22 285 -29 31 -74 40 -116 21z"/>
<path d="M1605 8000 c-46 -10 -71 -27 -102 -67 l-28 -36 0 -378 c0 -367 1
-378 21 -406 33 -44 80 -71 140 -78 l54 -7 0 -42 c0 -43 20 -76 57 -95 27 -14
190 -14 230 -1 37 13 63 57 63 107 l0 38 328 -1 c180 0 423 -1 540 -2 l212 -2
0 -41 c0 -31 6 -47 29 -70 29 -29 31 -29 144 -29 110 0 115 1 140 26 19 19 27
38 29 71 l3 45 43 4 c57 5 95 26 129 71 l28 36 3 363 c3 347 2 365 -17 403
-25 48 -61 78 -114 92 -43 11 -1876 11 -1932 -1z m1649 -174 c58 -29 123 -93
150 -151 61 -129 31 -292 -74 -394 -69 -67 -118 -86 -225 -86 -78 0 -97 4
-141 27 -204 107 -247 377 -85 539 76 75 139 100 242 96 59 -3 90 -10 133 -31z
m-1054 -206 l0 -50 -230 0 -230 0 0 50 0 50 230 0 230 0 0 -50z m0 -190 l0
-50 -230 0 -230 0 0 50 0 50 230 0 230 0 0 -50z"/>
<path d="M3025 7722 c-141 -68 -169 -256 -52 -359 102 -90 261 -62 325 58 20
37 23 55 20 114 -4 81 -27 124 -90 169 -53 38 -144 46 -203 18z"/>
<path d="M5787 7133 c-3 -5 -14 -39 -26 -77 -29 -93 -28 -129 5 -155 26 -21
33 -21 751 -21 491 0 731 3 744 11 35 18 39 50 17 140 -11 46 -28 90 -36 97
-12 9 -174 12 -733 12 -395 0 -720 -3 -722 -7z m913 -143 l0 -30 -190 0 -190
0 0 30 0 30 190 0 190 0 0 -30z"/>
<path d="M7447 7133 c-3 -5 -16 -45 -31 -90 -28 -91 -25 -118 16 -147 20 -14
99 -16 745 -16 434 0 732 4 747 10 14 5 33 21 42 35 17 26 16 28 -17 97 -19
39 -42 82 -52 95 l-18 23 -714 0 c-393 0 -716 -3 -718 -7z m923 -143 l0 -30
-195 0 -195 0 0 30 0 30 195 0 195 0 0 -30z"/>
<path d="M1430 6774 c-24 -10 -61 -47 -76 -76 -18 -34 -18 -139 0 -181 28 -67
65 -87 362 -190 154 -53 286 -97 292 -97 9 0 12 30 12 103 l0 102 3100 3 3100
2 0 -105 c0 -58 4 -105 9 -105 25 0 561 195 593 216 48 31 69 73 76 149 6 76
-13 119 -64 154 l-36 25 -3676 3 c-2023 1 -3684 0 -3692 -3z"/>
<path d="M2130 4399 l0 -1946 263 -6 c333 -9 862 -9 1875 0 l802 6 0 1949 0
1948 -1470 -3 -1470 -2 0 -1946z m2557 173 c6 -4 -8 -7 -32 -7 -24 0 -38 3
-32 7 7 4 21 8 32 8 11 0 25 -4 32 -8z m-93 -24 c-4 -7 -13 -20 -20 -28 -7 -9
-15 -45 -17 -80 l-3 -65 -2 66 c-2 54 2 71 19 93 21 27 36 35 23 14z m165 -42
c-3 -3 -11 5 -18 17 -13 21 -12 21 5 5 10 -10 16 -20 13 -22z m11 -186 c0
-140 -3 -175 -16 -195 -9 -14 -20 -25 -25 -25 -5 0 0 13 11 28 20 26 21 39 18
195 -2 92 0 167 5 167 4 0 7 -77 7 -170z m-179 -194 l21 -31 -26 28 c-24 26
-26 34 -24 115 l2 87 3 -84 c3 -64 9 -92 24 -115z m112 -43 c-13 -2 -35 -2
-50 0 -16 2 -5 4 22 4 28 0 40 -2 28 -4z"/>
<path d="M5170 4400 l0 -1950 1474 0 c1399 0 1474 1 1471 18 -2 9 -4 887 -4
1950 l-1 1932 -1470 0 -1470 0 0 -1950z m415 173 c-11 -2 -32 -8 -47 -13 -16
-5 -28 -7 -28 -4 0 9 44 23 70 22 20 0 21 -1 5 -5z m50 -13 c3 -6 -1 -7 -9 -4
-18 7 -21 14 -7 14 6 0 13 -4 16 -10z m-143 -42 c-8 -8 -12 -64 -12 -182 0
-167 0 -170 26 -203 14 -19 24 -36 21 -39 -2 -2 -16 14 -31 36 -25 39 -26 43
-26 205 0 152 9 219 28 201 3 -4 0 -12 -6 -18z m194 -191 l1 -182 -6 177 c-4
122 -10 181 -18 190 -7 6 -13 17 -13 22 0 6 8 2 18 -7 15 -15 17 -40 18 -200z
m-6 -190 c0 -2 -10 -12 -22 -23 l-23 -19 19 23 c18 21 26 27 26 19z m-113 -53
c-3 -3 -12 -4 -19 -1 -8 3 -5 6 6 6 11 1 17 -2 13 -5z m56 -1 c-7 -2 -19 -2
-25 0 -7 3 -2 5 12 5 14 0 19 -2 13 -5z"/>
<path d="M1934 2361 c-69 -13 -113 -90 -114 -196 0 -83 19 -129 69 -162 33
-22 41 -23 269 -23 230 0 236 1 288 25 155 73 355 71 505 -6 l44 -22 2132 0
c1913 0 2134 2 2156 15 93 62 314 81 442 39 38 -12 81 -29 97 -37 21 -11 78
-14 256 -14 221 0 230 1 262 23 58 39 71 66 76 153 5 70 2 84 -18 119 -14 23
-41 50 -64 62 l-41 23 -3170 2 c-1743 2 -3178 1 -3189 -1z"/>
<path d="M2551 1934 c-265 -71 -433 -355 -366 -619 62 -244 267 -405 514 -405
217 0 426 157 492 369 28 89 27 222 0 312 -52 165 -185 294 -353 343 -69 20
-213 20 -287 0z"/>
<path d="M7425 1936 c-84 -21 -162 -62 -238 -126 -39 -32 -110 -143 -133 -208
-29 -81 -32 -216 -9 -307 43 -162 178 -304 345 -361 42 -15 81 -19 165 -18
123 2 192 21 277 75 103 66 214 224 233 333 13 75 6 200 -15 267 -52 170 -204
313 -368 348 -68 14 -193 13 -257 -3z"/>
</g>
</svg>
