<?xml version="1.0" encoding="UTF-8"?>
<svg id="Capa_1" data-name="Capa 1" xmlns="http://www.w3.org/2000/svg" viewBox="0 0 1008.83 1010.08">
  <defs>
    <style>
      .cls-1 {
        stroke: #e41714;
        stroke-miterlimit: 10;
        stroke-width: 43px;
      }
    </style>
  </defs>
  <g>
    <path d="M464.42,77.04c-24.8,3.4-44.3,12.3-65,29.5-9.9,8.3-11,9.8-11,14.9,0,5.4,3.7,9.1,9.2,9.1,4.1,0,5.1-.6,11.9-6.6,22.4-20,47.5-29,77.3-27.6,24.9,1.1,47.1,9.6,66.4,25.4,4.6,3.7,9.3,7.4,10.5,8,3.4,2,7.3,1.5,10.5-1.2,3.5-2.9,4.5-6.9,2.7-11.1-1.4-3.3-13.7-14-23-19.9-13-8.4-32.4-16-48.5-19-10.1-2-31.9-2.7-41-1.5Z"/>
    <path d="M464.92,117.44c-14,2.7-30.7,11.4-42.6,22.4-6.5,5.9-7.6,8.7-5.5,13.7,2.9,6.8,12.1,8,17.2,2.3,3.7-4,14.6-11.1,22.2-14.2,24.8-10.5,52.5-5.7,74,12.8,6.2,5.3,9.1,6.3,13.3,4.6,4.1-1.7,5.9-4.7,5.9-9.5,0-3.5-.6-4.7-4.2-8.2-11.5-10.9-25-18.6-39.3-22.3-10.3-2.7-31.1-3.5-41-1.6Z"/>
    <path d="M469.72,157.54c-7.5,2.1-18.1,7.7-23,12.2-3.3,3.1-4.3,4.7-4.3,7.2,0,4.9,2.5,8.8,6.5,10.1,4.4,1.5,6.4.8,15.2-5,13.8-9.2,26.9-8.7,39,1.4,4.7,4,7.8,4.8,11.7,3.2,4.3-1.8,6.6-5.1,6.6-9.5,0-2.7-.9-4.3-4.3-7.5-5-4.9-14.9-10.3-22.1-12.2-6.5-1.7-18.6-1.7-25.3.1Z"/>
    <path d="M569.82,195.44c-4.3,3.1-4.5,4.9-4.2,51l.3,43.8,2.8,2.4,2.8,2.4h135.8l2-2.6c2.1-2.6,2.1-3.7,2.1-47.9v-45.2l-2.6-2.4-2.6-2.4-67.1-.3c-58-.2-67.5,0-69.3,1.2ZM697.42,243.94c0,23.5-.3,35.2-1.1,35.6-.5.4-26.9.4-58.5,0l-57.4-.8v-69.7h117v34.9Z"/>
    <path d="M735.72,195.04c-1.2.5-2.6,1.8-3.2,2.9-.7,1.3-1.1,17.1-1.1,47.1v45.1l2.5,2.4,2.4,2.5h135.3l2.9-2.9,2.9-2.9v-43.6c0-28.8-.4-44.3-1.1-45.9-2.4-5.4-.2-5.2-71.9-5.4-37.3-.1-67.5.2-68.7.7ZM862.42,244.64v35.7l-58.5-.4-58.5-.4v-70.5h117v35.6Z"/>
    <path d="M477.62,203.54c-1.8.8-3.7,2.6-4.2,4-.6,1.5-1,13.5-1,27.6v24.9h-11.7c-6.5,0-13.8.5-16.2,1.1-7.5,1.7-15.4,6-21.4,11.8-10.3,9.8-14.7,20.3-14.7,35.4,0,10.4,1.6,14.6,6.5,17.7,3.2,2,4.4,2,68,1.8l64.7-.3,3.5-3.8,3.5-3.9-.4-13.1c-.3-12.4-.5-13.6-3.5-19.9-5.5-11.8-15.5-20.5-28-24.7-5-1.7-8.7-2.1-18.8-2.1h-12.5v-25.9c0-25.5,0-26-2.2-28.5-2.9-3.1-7.4-4-11.6-2.1Z"/>
    <path d="M147.92,217.04c-4.6,1-7.1,2.7-10.2,6.7l-2.8,3.6v37.8c0,36.7.1,37.8,2.1,40.6,3.3,4.4,8,7.1,14,7.8l5.4.7v4.2c0,4.3,2,7.6,5.7,9.5,2.7,1.4,19,1.4,23,.1,3.7-1.3,6.3-5.7,6.3-10.7v-3.8l32.8.1c18,0,42.3.1,54,.2l21.2.2v4.1c0,3.1.6,4.7,2.9,7,2.9,2.9,3.1,2.9,14.4,2.9s11.5-.1,14-2.6c1.9-1.9,2.7-3.8,2.9-7.1l.3-4.5,4.3-.4c5.7-.5,9.5-2.6,12.9-7.1l2.8-3.6.3-36.3c.3-34.7.2-36.5-1.7-40.3-2.5-4.8-6.1-7.8-11.4-9.2-4.3-1.1-187.6-1.1-193.2.1ZM312.82,234.44c5.8,2.9,12.3,9.3,15,15.1,6.1,12.9,3.1,29.2-7.4,39.4-6.9,6.7-11.8,8.6-22.5,8.6-7.8,0-9.7-.4-14.1-2.7-20.4-10.7-24.7-37.7-8.5-53.9,7.6-7.5,13.9-10,24.2-9.6,5.9.3,9,1,13.3,3.1ZM207.42,255.04v5h-46v-10h46v5ZM207.42,274.04v5h-46v-10h46v5Z"/>
    <path d="M289.92,244.84c-14.1,6.8-16.9,25.6-5.2,35.9,10.2,9,26.1,6.2,32.5-5.8,2-3.7,2.3-5.5,2-11.4-.4-8.1-2.7-12.4-9-16.9-5.3-3.8-14.4-4.6-20.3-1.8Z"/>
    <path d="M566.12,303.74c-.3.5-1.4,3.9-2.6,7.7-2.9,9.3-2.8,12.9.5,15.5,2.6,2.1,3.3,2.1,75.1,2.1,49.1,0,73.1-.3,74.4-1.1,3.5-1.8,3.9-5,1.7-14-1.1-4.6-2.8-9-3.6-9.7-1.2-.9-17.4-1.2-73.3-1.2-39.5,0-72,.3-72.2.7ZM657.42,318.04v3h-38v-6h38v3Z"/>
    <path d="M732.12,303.74c-.3.5-1.6,4.5-3.1,9-2.8,9.1-2.5,11.8,1.6,14.7,2,1.4,9.9,1.6,74.5,1.6,43.4,0,73.2-.4,74.7-1,1.4-.5,3.3-2.1,4.2-3.5,1.7-2.6,1.6-2.8-1.7-9.7-1.9-3.9-4.2-8.2-5.2-9.5l-1.8-2.3h-71.4c-39.3,0-71.6.3-71.8.7ZM824.42,318.04v3h-39v-6h39v3Z"/>
    <path d="M130.42,339.64c-2.4,1-6.1,4.7-7.6,7.6-1.8,3.4-1.8,13.9,0,18.1,2.8,6.7,6.5,8.7,36.2,19,15.4,5.3,28.6,9.7,29.2,9.7.9,0,1.2-3,1.2-10.3v-10.2l310-.3,310-.2v10.5c0,5.8.4,10.5.9,10.5,2.5,0,56.1-19.5,59.3-21.6,4.8-3.1,6.9-7.3,7.6-14.9.6-7.6-1.3-11.9-6.4-15.4l-3.6-2.5-367.6-.3c-202.3-.1-368.4,0-369.2.3Z"/>
    <path d="M200.42,577.14v194.6l26.3.6c33.3.9,86.2.9,187.5,0l80.2-.6v-389.7l-147,.3-147,.2v194.6ZM456.12,559.84c.6.4-.8.7-3.2.7s-3.8-.3-3.2-.7c.7-.4,2.1-.8,3.2-.8s2.5.4,3.2.8ZM446.82,562.24c-.4.7-1.3,2-2,2.8-.7.9-1.5,4.5-1.7,8l-.3,6.5-.2-6.6c-.2-5.4.2-7.1,1.9-9.3,2.1-2.7,3.6-3.5,2.3-1.4ZM463.32,566.44c-.3.3-1.1-.5-1.8-1.7-1.3-2.1-1.2-2.1.5-.5,1,1,1.6,2,1.3,2.2ZM464.42,585.04c0,14-.3,17.5-1.6,19.5-.9,1.4-2,2.5-2.5,2.5s0-1.3,1.1-2.8c2-2.6,2.1-3.9,1.8-19.5-.2-9.2,0-16.7.5-16.7.4,0,.7,7.7.7,17ZM446.52,604.44l2.1,3.1-2.6-2.8c-2.4-2.6-2.6-3.4-2.4-11.5l.2-8.7.3,8.4c.3,6.4.9,9.2,2.4,11.5ZM457.72,608.74c-1.3.2-3.5.2-5,0-1.6-.2-.5-.4,2.2-.4s4,.2,2.8.4Z"/>
    <path d="M504.42,577.04v195h147.4c139.9,0,147.4-.1,147.1-1.8-.2-.9-.4-88.7-.4-195l-.1-193.2h-294v195ZM545.92,559.74c-1.1.2-3.2.8-4.7,1.3-1.6.5-2.8.7-2.8.4,0-.9,4.4-2.3,7-2.2,2,0,2.1.1.5.5ZM550.92,561.04c.3.6-.1.7-.9.4-1.8-.7-2.1-1.4-.7-1.4.6,0,1.3.4,1.6,1ZM536.62,565.24c-.8.8-1.2,6.4-1.2,18.2,0,16.7,0,17,2.6,20.3,1.4,1.9,2.4,3.6,2.1,3.9-.2.2-1.6-1.4-3.1-3.6-2.5-3.9-2.6-4.3-2.6-20.5,0-15.2.9-21.9,2.8-20.1.3.4,0,1.2-.6,1.8ZM556.02,584.34l.1,18.2-.6-17.7c-.4-12.2-1-18.1-1.8-19-.7-.6-1.3-1.7-1.3-2.2,0-.6.8-.2,1.8.7,1.5,1.5,1.7,4,1.8,20ZM555.42,603.34c0,.2-1,1.2-2.2,2.3l-2.3,1.9,1.9-2.3c1.8-2.1,2.6-2.7,2.6-1.9ZM544.12,608.64c-.3.3-1.2.4-1.9.1-.8-.3-.5-.6.6-.6,1.1-.1,1.7.2,1.3.5ZM549.72,608.74c-.7.2-1.9.2-2.5,0-.7-.3-.2-.5,1.2-.5s1.9.2,1.3.5Z"/>
    <path d="M180.82,780.94c-6.9,1.3-11.3,9-11.4,19.6,0,8.3,1.9,12.9,6.9,16.2,3.3,2.2,4.1,2.3,26.9,2.3s23.6-.1,28.8-2.5c15.5-7.3,35.5-7.1,50.5.6l4.4,2.2h213.2c191.3,0,213.4-.2,215.6-1.5,9.3-6.2,31.4-8.1,44.2-3.9,3.8,1.2,8.1,2.9,9.7,3.7,2.1,1.1,7.8,1.4,25.6,1.4,22.1,0,23-.1,26.2-2.3,5.8-3.9,7.1-6.6,7.6-15.3.5-7,.2-8.4-1.8-11.9-1.4-2.3-4.1-5-6.4-6.2l-4.1-2.3-317-.2c-174.3-.2-317.8-.1-318.9.1Z"/>
    <path d="M242.52,823.64c-26.5,7.1-43.3,35.5-36.6,61.9,6.2,24.4,26.7,40.5,51.4,40.5,21.7,0,42.6-15.7,49.2-36.9,2.8-8.9,2.7-22.2,0-31.2-5.2-16.5-18.5-29.4-35.3-34.3-6.9-2-21.3-2-28.7,0Z"/>
    <path d="M729.92,823.44c-8.4,2.1-16.2,6.2-23.8,12.6-3.9,3.2-11,14.3-13.3,20.8-2.9,8.1-3.2,21.6-.9,30.7,4.3,16.2,17.8,30.4,34.5,36.1,4.2,1.5,8.1,1.9,16.5,1.8,12.3-.2,19.2-2.1,27.7-7.5,10.3-6.6,21.4-22.4,23.3-33.3,1.3-7.5.6-20-1.5-26.7-5.2-17-20.4-31.3-36.8-34.8-6.8-1.4-19.3-1.3-25.7.3Z"/>
  </g>
  <path class="cls-1" d="M15.85,15.18c325.71,326.57,651.43,653.14,977.14,979.71"/>
  <path class="cls-1" d="M15.2,994.25C341.35,668.11,667.49,341.97,993.63,15.83"/>
</svg>