<?xml version="1.0" encoding="utf-8"?>
<!-- Generator: Adobe Illustrator 25.2.1, SVG Export Plug-In . SVG Version: 6.00 Build 0)  -->
<svg version="1.1" xmlns="http://www.w3.org/2000/svg" xmlns:xlink="http://www.w3.org/1999/xlink" x="0px" y="0px"
	 viewBox="0 0 2200 2200" style="enable-background:new 0 0 2200 2200;" xml:space="preserve">
<style type="text/css">
	.st0{opacity:0.24;}
	.st1{fill:#FFFFFF;}
	.st2{fill:#6DD3F2;}
	.st3{fill:#5BAEDD;}
	.st4{fill:#97EBFF;}
</style>
<g id="Background">
</g>
<g id="Objects">
	<g>
		<g class="st0">
			
				<image style="overflow:visible;" width="5738" height="7709" xlink:href="CB91D954.png"  transform="matrix(0.24 0 0 0.24 411.36 174.88)">
			</image>
		</g>
		<path class="st1" d="M1732.9,1302.9c0,85.4-16.7,168.3-49.8,246.4c-31.9,75.4-77.5,143-135.6,201.2
			c-58.1,58.1-125.8,103.7-201.2,135.6c-78.1,33-160.9,49.8-246.4,49.8c-85.4,0-168.3-16.7-246.4-49.8
			c-75.4-31.9-143-77.5-201.2-135.6c-58.1-58.1-103.7-125.8-135.6-201.2c-33-78.1-49.8-160.9-49.8-246.4
			c0-322.5,181.9-536.2,342.4-724.7c91.8-107.8,178.4-209.6,219.7-318.8c11.1-29.5,38.5-48.4,69.8-48.4h0.9
			c31.8,0.4,59.1,20,69.7,50c38.5,109.5,126.8,212.7,220.4,322C1550.7,770.7,1732.9,983.5,1732.9,1302.9z"/>
		<path class="st2" d="M1675.9,1302.9c0,318.1-257.8,575.9-575.9,575.9c-318.1,0-575.9-257.8-575.9-575.9
			c0-483.1,439.3-708.4,558.4-1023.4c5.9-15.6,27.9-15.3,33.4,0.4C1225.9,592.8,1675.9,820.2,1675.9,1302.9z"/>
		<path class="st3" d="M1675.9,1302.9c0,318.1-257.8,575.9-575.9,575.9c-254.9,0-471.1-165.6-546.9-395
			c125.5,150.1,333.5,230.2,527,195.5c64.3-11.5,126.8-34.7,181.7-70.3c162.9-105.5,241-325.8,181-510.4
			c-40.4-124.3-132.6-223.7-202.7-334.1c-104.8-164.9-162.6-265.4-133.9-495.2c4.3,1.8,7.9,5.3,9.7,10.5
			C1225.9,592.8,1675.9,820.1,1675.9,1302.9z"/>
		<path class="st4" d="M666.8,1142.3c8.8-134.9,112.5-253.7,194.9-353.7c30.1-35.8,61.6-73.3,91-109.9c2.6-3.3,8.5-10.6,11.3-14
			c3.8-4.8,7.7-9.7,11.8-14.4c4.4-5.1,12.1-5.7,17.2-1.3c3.6,3.1,5,7.9,3.9,12.3c-1.6,6.1-3.4,12.1-5.2,18.2
			c-3.8,11.5-8.5,24-13.3,35.3C916.5,860.1,791,965.4,714.1,1100.8c-2.9,4.9-5.6,10.5-8.4,15.4c-5.6,10.6-10.7,21.5-16,32.4
			C683.7,1160,666.2,1155.5,666.8,1142.3L666.8,1142.3z"/>
	</g>
</g>
</svg>
