<svg id="Capa_1" enable-background="new 0 0 512 512" height="512" viewBox="0 0 512 512" width="512" xmlns="http://www.w3.org/2000/svg"><g><path d="m231.643 355.966c-.206.136-20.788 13.567-39.909 13.567-18.979 0-39.397-13.232-39.902-13.562-6.89-4.577-16.188-2.712-20.779 4.175-4.595 6.893-2.732 16.206 4.161 20.801 1.138.759 28.205 18.585 56.521 18.585s55.382-17.827 56.52-18.585c6.881-4.587 8.736-13.869 4.165-20.761-4.571-6.89-13.874-8.773-20.777-4.22z"/><path d="m143.533 287.078c1.329.404 3.933 2.113 5.543 3.67 5.881 5.835 15.378 5.798 21.213-.082 5.835-5.881 5.798-15.378-.083-21.213-2.075-2.075-13.113-12.427-26.673-12.427s-24.598 10.352-26.673 12.427c-5.881 5.835-5.918 15.332-.083 21.213s15.332 5.917 21.213.082c1.61-1.557 4.214-3.266 5.543-3.67z"/><path d="m234.39 290.748c1.61-1.557 4.214-3.266 5.543-3.67 1.329.404 3.933 2.113 5.543 3.67 5.881 5.835 15.378 5.798 21.213-.082 5.835-5.881 5.798-15.378-.083-21.213-2.075-2.075-13.113-12.427-26.673-12.427s-24.598 10.352-26.673 12.427c-5.881 5.835-5.918 15.332-.083 21.213 5.835 5.88 15.332 5.917 21.213.082z"/><path d="m277.61 100.752c-1.61 1.557-4.214 3.266-5.543 3.67-1.329-.404-3.933-2.113-5.543-3.67-5.881-5.835-15.378-5.798-21.213.082-5.835 5.881-5.798 15.378.083 21.213 2.075 2.075 13.113 12.427 26.673 12.427s24.598-10.352 26.673-12.427c5.881-5.835 5.918-15.332.083-21.213-5.835-5.88-15.332-5.917-21.213-.082z"/><path d="m374.01 100.752c-1.61 1.557-4.214 3.266-5.543 3.67-1.329-.404-3.933-2.113-5.543-3.67-5.881-5.835-15.378-5.798-21.213.082-5.835 5.881-5.798 15.378.083 21.213 2.075 2.075 13.113 12.427 26.673 12.427s24.598-10.352 26.673-12.427c5.881-5.835 5.918-15.332.083-21.213-5.836-5.88-15.333-5.917-21.213-.082z"/><path d="m457.121 34.652c-2.123-1.414-52.944-34.652-136.854-34.652s-134.732 33.238-136.854 34.652c-4.173 2.782-6.679 7.466-6.679 12.481v113.892c-74.935 3.584-119.861 32.965-121.854 34.293-4.173 2.782-6.679 7.466-6.679 12.481v128.534c0 41.403 13.581 80.089 39.274 111.877 25.304 31.307 60.098 53.209 100.621 63.341 1.194.298 2.416.448 3.638.448s2.444-.149 3.638-.448c40.522-10.132 75.316-32.035 100.621-63.341 23.307-28.835 36.646-63.347 38.923-100.413 35.819-11.146 66.629-31.821 89.61-60.254 25.693-31.788 39.274-70.475 39.274-111.877v-128.533c0-5.015-2.507-9.698-6.679-12.481zm-151.854 301.681c0 68.657-45.462 126.545-113.533 145.162-68.072-18.617-113.534-76.504-113.534-145.162v-119.867c20.87-11.031 60.647-25.799 113.533-25.799 47.364 0 87.597 12.09 113.533 25.799v119.867zm128.533-160.666c0 63.48-38.868 117.75-98.533 140.29v-90.848c13.541 3.845 24.758 11.159 24.91 11.259 6.903 4.554 16.206 2.67 20.776-4.221 4.571-6.892 2.716-16.173-4.165-20.761-1.078-.719-25.416-16.738-52.045-18.431-12.507-7.305-54.468-28.89-118.009-31.929v-105.227c5.411-2.86 13.983-6.957 25.33-11.019 34.12-12.216 66.798-14.78 88.203-14.78 38.78 0 69.37 8.038 88.203 14.78 11.353 4.064 19.927 8.163 25.33 11.019z"/></g></svg>