<svg id="Capa_1" enable-background="new 0 0 512 512" height="512" viewBox="0 0 512 512" width="512" xmlns="http://www.w3.org/2000/svg"><g><path d="m416.667 0h-289.2c-25.989 0-47.133 21.144-47.133 47.133 0 0 .003 385.714.003 385.735.073 25.927 21.186 46.999 47.13 46.999h17.133v17.133c0 6.067 3.655 11.537 9.26 13.858s12.057 1.038 16.347-3.252l21.527-21.526 21.527 21.526c4.29 4.29 10.742 5.573 16.347 3.252 5.605-2.322 9.26-7.792 9.26-13.858v-17.133h177.8c8.284 0 15-6.716 15-15v-449.867c-.001-8.284-6.717-15-15.001-15zm-272.067 449.867h-17.133c-9.447 0-17.133-7.686-17.133-17.133s7.686-17.133 17.133-17.133h17.133zm64.267 10.92-6.527-6.526c-2.929-2.929-6.768-4.394-10.606-4.394s-7.678 1.464-10.606 4.394l-6.527 6.526v-45.187h34.267v45.187zm192.8-10.92h-162.8v-34.267h162.8zm0-64.267h-274.216c-6.035 0-11.809 1.141-17.117 3.218v-341.685c0-9.447 7.686-17.133 17.133-17.133h274.2z"/><path d="m159.6 158.533h192.8c8.284 0 15-6.716 15-15v-64.266c0-8.284-6.716-15-15-15h-192.8c-8.284 0-15 6.716-15 15v64.267c0 8.283 6.716 14.999 15 14.999zm15-64.266h162.8v34.267h-162.8z"/><path d="m159.6 351.333h192.8c8.284 0 15-6.716 15-15s-6.716-15-15-15h-192.8c-8.284 0-15 6.716-15 15s6.716 15 15 15z"/></g></svg>