<svg id="Layer_1" enable-background="new 0 0 512.083 512.083" viewBox="0 0 512.083 512.083" xmlns="http://www.w3.org/2000/svg"><g><path d="m510.281 467.379c-.971-1.937-15.254-31.671.676-72.125 1.818-4.618 1.235-9.836-1.559-13.939-2.793-4.102-7.436-6.557-12.398-6.557h-11.494c2.211-5.498 3.44-11.493 3.44-17.773 0-12.69-4.979-24.231-13.075-32.798 8.095-8.567 13.075-20.108 13.075-32.798 0-26.356-21.439-47.798-47.791-47.798h-11.426c-2.978-12.105-6.144-36.746 3.63-71.49 1.272-4.521.353-9.376-2.483-13.119s-7.261-5.942-11.957-5.942l-45.194.002c-5.184-18.469-13.653-62 3.28-110.354 1.606-4.588.89-9.671-1.923-13.636-2.812-3.965-7.373-6.321-12.234-6.321h-188.266c-32.959 0-59.773 26.818-59.773 59.783v40.744c0 10.845 2.917 21.016 7.986 29.794l-25.616.001c-21.198 0-38.443 17.247-38.443 38.447v43.643c0 2.903.334 5.728.946 8.448h-21.732c-5.223 0-10.07 2.717-12.795 7.172-2.726 4.456-2.938 10.008-.56 14.658 14.619 28.586 1.43 49.585.862 50.465l.071-.106c-.184.272-.36.552-.528.838-2.69 4.602-2.735 10.286-.119 14.931 14.463 25.676 1.332 48.635.354 50.273-.834 1.282-1.44 2.657-1.836 4.074-14.178 10.44-23.399 27.24-23.399 46.16 0 31.594 25.7 57.298 57.289 57.298h439.711c5.301 0 10.263-2.697 12.962-7.259 2.693-4.549 2.846-10.077.319-14.716zm-484.75-151.606.023-.034.001.001c-.007.011-.016.022-.024.033zm119.278-233.261c0-16.422 13.356-29.783 29.773-29.783h168.226c-10.079 41.842-5.175 78.594-.063 100.312l-132.676.005v-45.455c0-8.284-6.716-15-15-15s-15 6.716-15 15v45.456h-5.296c-.064-.001-.126-.01-.191-.01-16.417 0-29.773-13.36-29.773-29.783zm-56.073 108.988c0-4.658 3.788-8.448 8.443-8.448l82.89-.003v15.561c0 8.284 6.716 15 15 15s15-6.716 15-15v-15.562l189.921-.008c-3.845 20.722-4.486 40.996-.966 60.551h-301.844c-4.656 0-8.443-3.79-8.443-8.448v-43.643zm352.419 82.091c9.81 0 17.791 7.984 17.791 17.798s-7.981 17.798-17.791 17.798h-381.502c2.087-9.649 2.865-21.807-.299-35.596zm-381.431 65.596h381.431c9.81 0 17.791 7.984 17.791 17.798 0 9.651-7.723 17.515-17.309 17.773h-382.061c2.219-9.797 3.199-22.077.148-35.571zm416.592 120.167h-419.027c-15.047 0-27.289-12.246-27.289-27.298 0-14.729 11.724-26.764 26.327-27.273l420.387-.024c-4.99 22.144-3.347 41.08-.398 54.595z"/></g><g/><g/><g/><g/><g/><g/><g/><g/><g/><g/><g/><g/><g/><g/><g/></svg>