<?xml version="1.0" encoding="utf-8"?>
<!-- Generator: Adobe Illustrator 25.2.1, SVG Export Plug-In . SVG Version: 6.00 Build 0)  -->
<svg version="1.1" xmlns="http://www.w3.org/2000/svg" xmlns:xlink="http://www.w3.org/1999/xlink" x="0px" y="0px"
	 viewBox="0 0 2200 2200" style="enable-background:new 0 0 2200 2200;" xml:space="preserve">
<style type="text/css">
	.st0{fill:#394855;}
</style>
<g id="Background">
</g>
<g id="Objects">
	<g>
		<g>
			<path class="st0" d="M1048.7,872c3.9,19.8-9,39.1-28.8,43c-19.8,3.9-39.1-9-43-28.8c-3.9-19.8,19.1-92.1,19.1-92.1
				S1044.7,852.2,1048.7,872z"/>
			<path class="st0" d="M835,956c13.3,15.2,11.7,38.4-3.5,51.6c-15.2,13.3-38.3,11.8-51.6-3.4c-13.3-15.2-29.5-89.3-29.5-89.3
				S821.7,940.7,835,956z"/>
			<path class="st0" d="M691.9,1135.5c19.1,6.5,29.4,27.3,22.8,46.4c-6.5,19.2-27.3,29.4-46.4,22.9c-19.1-6.5-70.3-62.6-70.3-62.6
				S672.8,1129,691.9,1135.5z"/>
			<path class="st0" d="M657.8,1362.5c19.8-3.9,39.1,9,43,28.8c3.9,19.9-9,39.1-28.8,43c-19.8,4-92.2-19.1-92.2-19.1
				S638,1366.4,657.8,1362.5z"/>
			<path class="st0" d="M741.8,1576.2c15.2-13.3,38.3-11.7,51.6,3.5c13.3,15.2,11.7,38.3-3.4,51.6c-15.2,13.3-89.3,29.6-89.3,29.6
				S726.6,1589.5,741.8,1576.2z"/>
			<path class="st0" d="M921.4,1719.2c6.5-19.1,27.3-29.4,46.5-22.8c19.1,6.6,29.3,27.3,22.8,46.4c-6.5,19.1-62.6,70.3-62.6,70.3
				S914.9,1738.4,921.4,1719.2z"/>
			<path class="st0" d="M1148.4,1753.4c-3.9-19.8,9-39.1,28.8-43c19.9-3.9,39.1,9,43,28.8c4,19.8-19.1,92.1-19.1,92.1
				S1152.3,1773.2,1148.4,1753.4z"/>
			<path class="st0" d="M1362,1669.4c-13.3-15.1-11.8-38.3,3.4-51.6c15.3-13.3,38.3-11.7,51.6,3.4c13.3,15.2,29.6,89.3,29.6,89.3
				S1375.4,1684.6,1362,1669.4z"/>
			<path class="st0" d="M1505.1,1489.8c-19.1-6.5-29.4-27.3-22.9-46.4c6.5-19.2,27.3-29.4,46.4-22.9c19.2,6.5,70.3,62.6,70.3,62.6
				S1524.2,1496.3,1505.1,1489.8z"/>
			<path class="st0" d="M1539.2,1262.8c-19.8,4-39.1-8.9-43-28.8c-4-19.9,9-39.1,28.8-43c19.8-4,92.1,19,92.1,19
				S1559,1258.9,1539.2,1262.8z"/>
			<path class="st0" d="M1455.3,1049.1c-15.2,13.3-38.4,11.8-51.6-3.4c-13.4-15.2-11.8-38.3,3.4-51.6c15.2-13.4,89.3-29.6,89.3-29.6
				S1470.4,1035.8,1455.3,1049.1z"/>
			<path class="st0" d="M1275.7,906c-6.5,19.1-27.4,29.4-46.4,22.8c-19.2-6.5-29.4-27.2-22.9-46.3c6.5-19.2,62.5-70.3,62.5-70.3
				S1282.2,887,1275.7,906z"/>
			<path class="st0" d="M1153.9,874.2c-1,14.4-13.4,25.3-27.8,24.3c-14.4-0.9-25.3-13.4-24.3-27.8c1-14.4,13.4-25.3,27.8-24.3
				C1143.9,847.3,1154.9,859.8,1153.9,874.2z"/>
			<path class="st0" d="M927.2,905.2c6.4,13,1,28.7-11.9,35c-13,6.4-28.6,1-35-11.9c-6.4-12.9-1-28.6,11.9-35
				C905.2,886.9,920.9,892.2,927.2,905.2z"/>
			<path class="st0" d="M746.4,1045.4c12,8,15.2,24.3,7.2,36.2c-8,12-24.3,15.2-36.2,7.2c-12-8-15.2-24.2-7.2-36.2
				C718.2,1040.6,734.5,1037.4,746.4,1045.4z"/>
			<path class="st0" d="M660,1257.3c14.4,1,25.3,13.4,24.4,27.8c-1,14.4-13.5,25.3-27.9,24.3c-14.4-1-25.3-13.4-24.3-27.8
				C633.1,1267.2,645.6,1256.3,660,1257.3z"/>
			<path class="st0" d="M691,1483.9c12.9-6.3,28.6-1,35,12c6.3,12.9,1,28.6-11.9,34.9c-12.9,6.4-28.6,1.1-35-11.9
				C672.7,1506,678.1,1490.3,691,1483.9z"/>
			<path class="st0" d="M831.2,1664.7c8-12,24.3-15.2,36.3-7.1c12,8,15.2,24.3,7.1,36.3c-8,11.9-24.2,15.2-36.2,7.2
				C826.4,1693,823.2,1676.7,831.2,1664.7z"/>
			<path class="st0" d="M1043.1,1751.2c0.9-14.4,13.4-25.3,27.8-24.3c14.4,1,25.3,13.4,24.3,27.8c-1,14.3-13.4,25.3-27.8,24.4
				C1053,1778.1,1042.1,1765.6,1043.1,1751.2z"/>
			<path class="st0" d="M1269.8,1720.2c-6.4-13-1-28.6,11.9-35c12.9-6.4,28.6-1,34.9,11.9c6.4,12.9,1.1,28.6-11.9,35
				C1291.8,1738.4,1276.1,1733.1,1269.8,1720.2z"/>
			<path class="st0" d="M1450.6,1579.9c-12-8-15.2-24.3-7.2-36.3c8-12,24.3-15.2,36.3-7.1c11.9,8,15.2,24.2,7.1,36.2
				C1478.8,1584.8,1462.6,1588,1450.6,1579.9z"/>
			<path class="st0" d="M1537,1368.1c-14.4-0.9-25.3-13.4-24.3-27.8c0.9-14.4,13.4-25.3,27.8-24.4c14.4,1,25.3,13.4,24.3,27.9
				C1563.9,1358.1,1551.4,1369.1,1537,1368.1z"/>
			<path class="st0" d="M1506,1141.4c-13,6.4-28.7,1.1-35-11.9c-6.4-12.9-1-28.6,11.9-35c12.9-6.3,28.6-1.1,35,11.9
				C1524.3,1119.4,1518.9,1135,1506,1141.4z"/>
			<path class="st0" d="M1365.7,960.6c-8,12-24.3,15.2-36.2,7.2c-12-8-15.2-24.2-7.2-36.3c8-11.9,24.3-15.2,36.3-7.2
				C1370.6,932.4,1373.8,948.6,1365.7,960.6z"/>
		</g>
		<path class="st0" d="M1477.2,1337.9c-13.9,209.2-194.8,367.4-403.9,353.5c-209.1-13.9-367.4-194.8-353.5-403.9
			c13.9-209.2,194.8-367.4,403.9-353.5C1332.9,947.9,1491.1,1128.7,1477.2,1337.9z M1279,1271.2c0,29.5-18.3,69.1-46.2,83.4
			c20.7-24,40.4-117.6-23.7-197.4c0.9,31.8-7.3,74.1-32.4,120.7c13.8-74.3-53.9-148.9-30.8-202.2c-97.8,47.2-67.8,144.4-93.9,191.7
			c-11.1-42.9-39.9-91.8-55.9-97.6c10,72.4-48.7,95.3-24.2,181.3c0,0-31.1-50.4-27.4-104.5c-87.1,114.4-17.2,263.1,66.7,296.5
			c-11.6-28.5-11.5-69.4,12.4-100.6c-1.8,26.9,13.6,51.9,13.6,51.9c-12.2-42.7,17-54.1,12-90.1c7.9,2.9,22.2,27.2,27.8,48.5
			c13-23.5-1.9-71.8,46.7-95.3c-11.5,26.5,22.1,63.5,15.3,100.5c12.5-23.2,16.5-44.2,16.1-60c31.9,39.7,22,86.2,11.8,98.1
			c13.9-7.1,22.9-26.8,22.9-41.4c13.5,28.4,12.2,61.8,1.9,88.5C1275.5,1524.6,1330.4,1379.7,1279,1271.2z"/>
		<path class="st0" d="M1851.1,2002H345.9V859.2L1098.5,491l752.6,368.2V2002z M1759,1909.9V916.6l-660.5-323.1L438,916.6v993.3
			H1759z"/>
		<path class="st0" d="M1098.5,439.8L276.3,842c-20.7,10.1-45.7,1.6-55.9-19.2l-44.2-90.3c-4.9-9.9-5.6-21.4-2-31.9
			c3.6-10.5,11.2-19.1,21.2-24l903.1-441.8l903.1,441.8c9.9,4.9,17.6,13.5,21.1,24c3.6,10.5,2.9,22-2,31.9l-44.2,90.3
			c-10.1,20.7-35.1,29.3-55.9,19.2L1098.5,439.8z"/>
		<polygon class="st0" points="1568.7,438.1 1387.4,352.6 1387.4,258.9 1568.7,258.9 		"/>
		<rect x="1355.9" y="211.2" class="st0" width="244.2" height="48.5"/>
	</g>
</g>
</svg>
