<?xml version="1.0" encoding="UTF-8" standalone="no"?>
<svg
   id="Capa_1"
   data-name="Capa 1"
   viewBox="0 0 42.06 42.06"
   version="1.1"
   sodipodi:docname="delegacion_.svg"
   inkscape:version="1.1.1 (3bf5ae0d25, 2021-09-20)"
   xmlns:inkscape="http://www.inkscape.org/namespaces/inkscape"
   xmlns:sodipodi="http://sodipodi.sourceforge.net/DTD/sodipodi-0.dtd"
   xmlns="http://www.w3.org/2000/svg"
   xmlns:svg="http://www.w3.org/2000/svg">
  <sodipodi:namedview
     id="namedview23"
     pagecolor="#ffffff"
     bordercolor="#666666"
     borderopacity="1.0"
     inkscape:pageshadow="2"
     inkscape:pageopacity="0.0"
     inkscape:pagecheckerboard="0"
     showgrid="false"
     inkscape:zoom="6.1816451"
     inkscape:cx="2.9927309"
     inkscape:cy="19.493193"
     inkscape:window-width="1366"
     inkscape:window-height="705"
     inkscape:window-x="-8"
     inkscape:window-y="-8"
     inkscape:window-maximized="1"
     inkscape:current-layer="Capa_1" />
  <defs
     id="defs4">
    <style
       id="style2">.cls-1{fill:#fff;}</style>
  </defs>
  <path
     class="cls-1"
     d="M4.94,23.09c0-.65,0-1.25,0-1.85,0-.09.2-.22.33-.27l8.42-3.17q4.72-1.77,9.44-3.52a1,1,0,0,1,.69,0q9,3.35,18,6.72l.24.11v2H30.49a4.64,4.64,0,0,0-.53,0,1.24,1.24,0,0,0,.1,2.48c.45,0,.9,0,1.35,0h8.11V41H37.14v-.45c0-2.93,0-5.86,0-8.79a3.7,3.7,0,0,0-7.39-.37c-.05,1,0,2,0,3V41H27.19v-.48c0-3.43,0-6.87,0-10.31a3.67,3.67,0,0,0-1.87-3.38,3.72,3.72,0,0,0-5.57,3.32c0,3.43,0,6.87,0,10.31V41H17.3v-.46c0-2.86,0-5.72,0-8.58a3.71,3.71,0,1,0-7.42-.3c0,2.94,0,5.89,0,8.83V41H7.51V25.58h9.26A1.24,1.24,0,0,0,18.09,24a1.16,1.16,0,0,0-1-.91,4.22,4.22,0,0,0-.62,0H4.94Zm18.58-6.6a3.71,3.71,0,1,0,3.67,3.76A3.76,3.76,0,0,0,23.52,16.49Z"
     transform="translate(-2.48 -1.44)"
     id="path8" />
  <path
     class="cls-1"
     d="M24.69,41H22.27c0-.11,0-.2,0-.29q0-5.28,0-10.56a1.19,1.19,0,0,1,1.29-1.31A1.17,1.17,0,0,1,24.67,30c0,.24,0,.49,0,.73V41Z"
     transform="translate(-2.48 -1.44)"
     id="path10" />
  <path
     class="cls-1"
     d="M12.38,41c0-.13,0-.25,0-.37,0-2.9,0-5.8,0-8.7,0-.89.5-1.44,1.28-1.42a1.17,1.17,0,0,1,1.16,1.11c0,3.12,0,6.24,0,9.38Z"
     transform="translate(-2.48 -1.44)"
     id="path12" />
  <path
     class="cls-1"
     d="M34.63,41h-2.4c0-.12,0-.23,0-.33V31.78a1.22,1.22,0,0,1,.89-1.23,1.17,1.17,0,0,1,1.35.53,1.43,1.43,0,0,1,.21.69c0,3,0,6.05,0,9.07A1.35,1.35,0,0,1,34.63,41Z"
     transform="translate(-2.48 -1.44)"
     id="path14" />
  <path
     class="cls-1"
     d="M29.43,3.92V6.34H24.77V3.92Z"
     transform="translate(-2.48 -1.44)"
     id="path16" />
  <path
     class="cls-1"
     d="M23.49,21.41a1.21,1.21,0,1,1,1.19-1.24A1.19,1.19,0,0,1,23.49,21.41Z"
     transform="translate(-2.48 -1.44)"
     id="path20" />
  <g
     id="g24"
     transform="matrix(0.22044323,0,0,0.21525874,-11.817617,-10.964715)">
    <path
       d="m 122.921,175.563 c 0,-2.859 -2.318,-5.178 -5.178,-5.178 h -11.285 c -2.859,0 -5.177,2.318 -5.177,5.178 0,2.859 2.318,5.177 5.177,5.177 h 6.107 v 6.107 c 0,2.86 2.318,5.178 5.178,5.178 2.86,0 5.178,-2.317 5.178,-5.178 z"
       id="path2" />
    <path
       d="m 95.438,175.563 c 0,-2.859 -2.318,-5.178 -5.178,-5.178 H 78.975 c -2.859,0 -5.177,2.318 -5.177,5.178 0,2.859 2.318,5.177 5.177,5.177 h 6.108 v 6.107 c 0,2.86 2.317,5.178 5.177,5.178 2.859,0 5.178,-2.317 5.178,-5.178 z"
       id="path4" />
    <path
       d="m 117.743,220.632 c 2.86,0 5.178,-2.318 5.178,-5.177 V 204.17 c 0,-2.859 -2.318,-5.177 -5.178,-5.177 h -11.285 c -2.859,0 -5.177,2.318 -5.177,5.177 0,2.859 2.318,5.177 5.177,5.177 h 6.107 v 6.107 c 0,2.86 2.319,5.178 5.178,5.178 z"
       id="path6" />
    <path
       d="m 90.26,220.632 c 2.859,0 5.178,-2.318 5.178,-5.177 V 204.17 c 0,-2.859 -2.318,-5.177 -5.178,-5.177 H 78.975 c -2.859,0 -5.177,2.318 -5.177,5.177 0,2.859 2.318,5.177 5.177,5.177 h 6.108 v 6.107 c 0,2.86 2.317,5.178 5.177,5.178 z"
       id="path8-9" />
    <path
       d="m 193.541,170.386 h -11.284 c -2.86,0 -5.178,2.318 -5.178,5.178 v 11.284 c 0,2.86 2.317,5.178 5.178,5.178 2.859,0 5.178,-2.317 5.178,-5.178 v -6.107 h 6.106 c 2.86,0 5.178,-2.317 5.178,-5.177 0,-2.86 -2.318,-5.178 -5.178,-5.178 z"
       id="path10-5" />
    <path
       d="M 221.024,170.386 H 209.74 c -2.859,0 -5.177,2.318 -5.177,5.178 v 11.284 c 0,2.86 2.318,5.178 5.177,5.178 2.861,0 5.178,-2.317 5.178,-5.178 v -6.107 h 6.106 c 2.86,0 5.177,-2.317 5.177,-5.177 0.001,-2.86 -2.317,-5.178 -5.177,-5.178 z"
       id="path12-3" />
    <path
       d="m 193.541,198.993 h -11.284 c -2.86,0 -5.178,2.318 -5.178,5.177 v 11.284 c 0,2.859 2.317,5.177 5.178,5.177 2.859,0 5.178,-2.318 5.178,-5.177 v -6.107 h 6.106 c 2.86,0 5.178,-2.318 5.178,-5.177 0,-2.859 -2.318,-5.177 -5.178,-5.177 z"
       id="path14-9" />
    <path
       d="M 221.024,198.993 H 209.74 c -2.859,0 -5.177,2.318 -5.177,5.177 v 11.284 c 0,2.859 2.318,5.177 5.177,5.177 2.861,0 5.178,-2.318 5.178,-5.177 v -6.107 h 6.106 c 2.86,0 5.177,-2.318 5.177,-5.177 0.001,-2.859 -2.317,-5.177 -5.177,-5.177 z"
       id="path16-4" />
    <path
       d="m 127.413,148.709 c 0,12.454 10.133,22.586 22.587,22.586 12.454,0 22.587,-10.132 22.587,-22.586 0,-12.454 -10.133,-22.586 -22.587,-22.586 -12.454,0 -22.587,10.132 -22.587,22.586 z m 34.818,0 c 0,6.744 -5.487,12.231 -12.231,12.231 -6.745,0 -12.231,-5.487 -12.231,-12.231 0,-6.745 5.487,-12.232 12.231,-12.232 6.744,0 12.231,5.488 12.231,12.232 z"
       id="path18" />
    <path
       d="m 239.417,160.94 c -123.87238,-73.335084 -61.93619,-36.66754 0,0 z"
       id="path20-5"
       sodipodi:nodetypes="cc" />
    <path
       d="m 236.3036,141.57807 c -2.859,0 -2.0646,1.12335 -2.0646,3.98235 V 237.131 H 169.044 V 217.43 c 0,-10.501 -8.544,-19.043 -19.044,-19.043 -10.501,0 -19.043,8.542 -19.043,19.043 v 19.701 H 65.761 v -86.312 l 27.746,-28.386 h 20.359 l -18.289,21.1 H 66.471739 c -2.86,0 -5.178,2.317 -5.178,5.177 0,2.859 -0.146778,5.178 5.178,5.178 H 97.941 c 1.501,0 2.928,-0.652 3.913,-1.787 L 150,96.558 l 48.148,55.543 c 1.022,1.182 2.461,1.786 3.911,1.787 v 0 h 37.358 c 2.083,0 3.964,-1.25 4.771,-3.17 0.808,-1.92 -5.23027,0.53836 0.406,-5.15658 L 212.375,113.636 c -0.975,-0.997 -2.309,-1.559 -3.704,-1.559 H 177.156 L 155.175,86.722 V 82.7 c 0.549,0.073 1.087,0.106 1.618,0.106 3.09,0 5.861,-1.117 8.206,-2.061 3.47,-1.398 6.466,-2.605 11.011,-1.525 1.541,0.366 3.166,0.008 4.408,-0.974 1.242,-0.982 1.967,-2.479 1.967,-4.062 V 59.872 c 0,-1.383 -0.554,-2.709 -1.537,-3.681 -2.646,-2.62 -5.789,-3.85 -9.337,-3.658 -2.665,0.143 -5.123,1.06 -7.498,1.946 -3.993,1.491 -7.441,2.776 -11.797,0.714 0,0.001 -0.001,0.003 -0.001,0.004 -0.674,-0.319 -1.422,-0.502 -2.215,-0.502 -2.859,0 -5.178,2.318 -5.178,5.177 v 26.85 l -21.98,25.355 H 91.327 c -1.395,0 -2.729,0.562 -3.703,1.559 L 56.881,145.09 c -0.946,0.968 -1.475,2.267 -1.475,3.62 v 93.599 c 0,2.86 2.317,5.178 5.177,5.178 h 75.552 c 2.859,0 5.177,-2.318 5.177,-5.178 v -24.877 c 0,-4.791 3.897,-8.688 8.688,-8.688 4.79,0 8.688,3.898 8.688,8.688 v 24.877 c 0,2.86 2.319,5.178 5.178,5.178 h 75.551 c 2.859,0 5.177,-2.318 5.177,-5.178 v -96.74758 c -7.26461,0.32839 -5.4314,-3.98335 -8.2904,-3.98335 z M 206.493,122.433 l 20.623,21.1 h -22.693 l -18.289,-21.1 z m -38.86,-58.252 c 2.348,-0.875 3.605,-1.258 4.397,-1.3 v 5.578 c -4.537,0.12 -8.084,1.547 -10.899,2.682 -3.291,1.326 -4.425,1.781 -5.955,0.724 v -5.308 c 5.047,0.388 9.304,-1.199 12.457,-2.376 z"
       id="path22"
       sodipodi:nodetypes="ssccsssccccccsssscccscscccscccsccssscccccssccsccsssssssssssscscccccccccccc" />
  </g>
</svg>
