<svg id="Capa_1" enable-background="new 0 0 512 512" height="512" viewBox="0 0 512 512" width="512" xmlns="http://www.w3.org/2000/svg"><g><path d="m83.857 443.138c8.284 0 15-6.716 15-15v-17.215c0-8.284-6.716-15-15-15s-15 6.716-15 15v17.215c0 8.284 6.716 15 15 15z"/><path d="m428.143 443.138c8.284 0 15-6.716 15-15v-17.215c0-8.284-6.716-15-15-15s-15 6.716-15 15v17.215c0 8.284 6.716 15 15 15z"/><path d="m497 172.138h-134.175l-91.825-45.909v-27.375h88.285c6.067 0 11.536-3.654 13.858-9.259s1.039-12.057-3.251-16.347l-23.822-23.824 23.821-23.817c4.29-4.29 5.574-10.742 3.252-16.347s-7.791-9.26-13.858-9.26h-103.285c-8.284 0-15 6.716-15 15v111.229l-91.825 45.909h-134.175c-8.284 0-15 6.716-15 15v309.862c0 8.284 6.716 15 15 15h482c8.284 0 15-6.716 15-15v-309.862c0-8.284-6.716-15-15-15zm-226-142.138h52.068l-8.817 8.815c-2.813 2.813-4.394 6.628-4.394 10.606 0 3.979 1.58 7.794 4.393 10.607l8.824 8.825h-52.074zm-133.285 452h-107.715v-211h107.715zm0-241h-107.715v-38.862h107.715zm137.714 241h-38.857v-53.878c0-10.843 8.812-19.415 19.442-19.415 10.521 0 19.415 8.509 19.415 19.415zm68.856 0h-38.856v-53.878c0-26.942-21.76-49.415-49.442-49.415-27.283 0-49.415 22.083-49.415 49.415v53.878h-38.857v-285.591l88.285-44.139 88.285 44.139zm137.715 0h-107.715v-211h107.715zm0-241h-107.715v-38.862h107.715z"/><path d="m83.857 357.069c8.284 0 15-6.716 15-15v-17.215c0-8.284-6.716-15-15-15s-15 6.716-15 15v17.215c0 8.284 6.716 15 15 15z"/><path d="m428.143 357.069c8.284 0 15-6.716 15-15v-17.215c0-8.284-6.716-15-15-15s-15 6.716-15 15v17.215c0 8.284 6.716 15 15 15z"/><path d="m290.429 357.069c8.284 0 15-6.716 15-15v-17.215c0-8.284-6.716-15-15-15s-15 6.716-15 15v17.215c0 8.284 6.716 15 15 15z"/><path d="m290.429 271c8.284 0 15-6.716 15-15v-17.215c0-8.284-6.716-15-15-15s-15 6.716-15 15v17.215c0 8.284 6.716 15 15 15z"/><path d="m221.572 309.854c-8.284 0-15 6.716-15 15v17.215c0 8.284 6.716 15 15 15s15-6.716 15-15v-17.215c0-8.284-6.716-15-15-15z"/><path d="m221.572 223.785c-8.284 0-15 6.716-15 15v17.215c0 8.284 6.716 15 15 15s15-6.716 15-15v-17.215c0-8.285-6.716-15-15-15z"/></g></svg>