<?xml version="1.0" standalone="no"?>
<!DOCTYPE svg PUBLIC "-//W3C//DTD SVG 20010904//EN"
 "http://www.w3.org/TR/2001/REC-SVG-20010904/DTD/svg10.dtd">
<svg version="1.0" xmlns="http://www.w3.org/2000/svg"
 width="205.000000pt" height="260.000000pt" viewBox="0 0 205.000000 260.000000"
 preserveAspectRatio="xMidYMid meet">

<g transform="translate(0.000000,260.000000) scale(0.100000,-0.100000)"
fill="#000000" stroke="none">
<path d="M846 2564 c-353 -79 -634 -343 -737 -695 -31 -106 -38 -355 -14 -464
46 -206 124 -330 623 -990 l287 -380 40 -3 c32 -2 45 2 61 20 42 46 630 835
703 943 99 146 175 307 197 414 23 117 15 355 -15 460 -79 272 -267 496 -516
616 -146 71 -215 87 -400 91 -118 3 -178 -1 -229 -12z m439 -164 c272 -87 468
-283 555 -555 31 -98 39 -312 16 -418 -20 -91 -88 -227 -177 -358 -94 -139
-619 -834 -629 -834 -5 0 -134 167 -287 370 -507 675 -540 740 -530 1030 3
108 10 156 27 210 72 227 219 399 425 502 134 67 212 83 390 79 111 -3 155 -8
210 -26z"/>
<path d="M890 2107 c-173 -59 -293 -184 -344 -356 -21 -71 -21 -211 0 -282 52
-176 187 -311 363 -363 71 -21 211 -21 282 0 176 52 311 187 363 363 21 71 21
211 0 282 -52 176 -187 311 -363 363 -82 24 -220 21 -301 -7z m297 -149 c81
-30 181 -130 211 -211 30 -79 30 -195 0 -274 -30 -81 -130 -181 -211 -211 -79
-30 -195 -30 -274 0 -81 30 -181 130 -211 211 -30 79 -30 195 0 274 29 79 130
181 208 211 77 29 199 30 277 0z"/>
</g>
</svg>
