<?xml version="1.0" encoding="utf-8"?>
<!-- Generator: Adobe Illustrator 24.1.1, SVG Export Plug-In . SVG Version: 6.00 Build 0)  -->
<svg version="1.1" id="Capa_1" xmlns="http://www.w3.org/2000/svg" xmlns:xlink="http://www.w3.org/1999/xlink" x="0px" y="0px"
	 viewBox="0 0 30 36" style="enable-background:new 0 0 30 36;" xml:space="preserve">
<style type="text/css">
	.st0{fill:#E9664C;}
	.st1{fill:#5BB152;}
	.st2{fill:#6E8CC6;}
	.st3{fill:#D3A40D;}
	.st4{fill:#F08E0F;}
	.st5{fill:#E45396;}
	.st6{fill:#9C9C9A;}
	.st7{fill:#FDD200;}
	.st8{fill:#AD1917;}
	.st9{fill:#FFFFFF;stroke:#000000;stroke-width:0.5;stroke-miterlimit:10;}
	.st10{fill-rule:evenodd;clip-rule:evenodd;}
	.st11{fill-rule:evenodd;clip-rule:evenodd;fill:#D3A40D;}
	.st12{fill-rule:evenodd;clip-rule:evenodd;fill:#6E8CC6;}
	.st13{fill-rule:evenodd;clip-rule:evenodd;fill:#AD1917;}
	.st14{fill-rule:evenodd;clip-rule:evenodd;fill:#5BB152;}
	.st15{fill:#008D95;}
</style>
<path d="M28.89,1.29c0.3,0.2,0.47,0.53,0.47,0.89v16.04c0,0.44-0.27,0.83-0.67,0.99l-0.4-0.99l0.4,0.99l-0.01,0l-0.01,0.01
	l-0.05,0.02c-0.28,0.11-0.56,0.22-0.85,0.32c-0.56,0.2-1.35,0.48-2.24,0.75c-1.74,0.54-4.02,1.12-5.8,1.12
	c-1.81,0-3.31-0.6-4.61-1.12l-0.06-0.02c-1.36-0.55-2.51-0.99-3.88-0.99c-1.5,0-3.5,0.49-5.21,1.02c-0.77,0.24-1.52,0.5-2.27,0.78
	v13.17c0,0.59-0.48,1.07-1.07,1.07s-1.07-0.48-1.07-1.07V2.18c0-0.59,0.48-1.07,1.07-1.07S3.7,1.59,3.7,2.18v0.6
	c0.48-0.17,1.06-0.36,1.69-0.56c1.74-0.53,4.02-1.12,5.8-1.12c1.8,0,3.26,0.59,4.54,1.11l0.09,0.04c1.33,0.54,2.49,0.99,3.93,0.99
	c1.5,0,3.5-0.49,5.21-1.02c0.97-0.3,1.94-0.64,2.88-1.02l0.04-0.01l0.01,0h0"/>
<path class="st15" d="M27.06,3.36c-0.47,0.17-1.03,0.36-1.64,0.55c-1.73,0.54-4,1.12-5.85,1.12c-1.89,0-3.4-0.61-4.71-1.14
	l-0.02-0.01c-1.34-0.54-2.46-0.99-3.83-0.99c-1.43,0-3.43,0.49-5.16,1.02C5.08,4.16,4.3,4.43,3.54,4.7v13.76
	c0.47-0.17,1.03-0.36,1.64-0.55c1.73-0.54,4-1.12,5.85-1.12c1.81,0,3.31,0.6,4.61,1.12l0.06,0.02c1.36,0.55,2.51,0.99,3.88,0.99
	c1.43,0,3.43-0.49,5.16-1.02c0.78-0.24,1.55-0.5,2.32-0.78L27.06,3.36L27.06,3.36z"/>
</svg>
