<?xml version="1.0" encoding="utf-8"?>
<!-- Generator: Adobe Illustrator 25.2.1, SVG Export Plug-In . SVG Version: 6.00 Build 0)  -->
<svg version="1.1" id="Capa_1" xmlns="http://www.w3.org/2000/svg" xmlns:xlink="http://www.w3.org/1999/xlink" x="0px" y="0px"
	 viewBox="0 0 512 512" style="enable-background:new 0 0 512 512;" xml:space="preserve">
<style type="text/css">
	.st0{fill:#8C398D;}
</style>
<g>
	<path class="st0" d="M83.9,443.1c8.3,0,15-6.7,15-15v-17.2c0-8.3-6.7-15-15-15s-15,6.7-15,15v17.2
		C68.9,436.4,75.6,443.1,83.9,443.1z"/>
	<path class="st0" d="M428.1,443.1c8.3,0,15-6.7,15-15v-17.2c0-8.3-6.7-15-15-15s-15,6.7-15,15v17.2
		C413.1,436.4,419.9,443.1,428.1,443.1z"/>
	<path class="st0" d="M497,172.1H362.8L271,126.2V98.9h88.3c6.1,0,11.5-3.7,13.9-9.3s1-12.1-3.3-16.3l-23.8-23.8l23.8-23.8
		c4.3-4.3,5.6-10.7,3.3-16.3S365.4,0,359.3,0H256c-8.3,0-15,6.7-15,15v111.2l-91.8,45.9H15c-8.3,0-15,6.7-15,15V497
		c0,8.3,6.7,15,15,15h482c8.3,0,15-6.7,15-15V187.1C512,178.9,505.3,172.1,497,172.1z M271,30h52.1l-8.8,8.8
		c-2.8,2.8-4.4,6.6-4.4,10.6c0,4,1.6,7.8,4.4,10.6l8.8,8.8H271V30z M137.7,482H30V271h107.7V482z M137.7,241H30v-38.9h107.7V241z
		 M275.4,482h-38.9v-53.9c0-10.8,8.8-19.4,19.4-19.4c10.5,0,19.4,8.5,19.4,19.4V482z M344.3,482h-38.9v-53.9
		c0-26.9-21.8-49.4-49.4-49.4c-27.3,0-49.4,22.1-49.4,49.4V482h-38.9V196.4l88.3-44.1l88.3,44.1L344.3,482z M482,482H374.3V271H482
		V482z M482,241H374.3v-38.9H482V241z"/>
	<path class="st0" d="M83.9,357.1c8.3,0,15-6.7,15-15v-17.2c0-8.3-6.7-15-15-15s-15,6.7-15,15v17.2
		C68.9,350.4,75.6,357.1,83.9,357.1z"/>
	<path class="st0" d="M428.1,357.1c8.3,0,15-6.7,15-15v-17.2c0-8.3-6.7-15-15-15s-15,6.7-15,15v17.2
		C413.1,350.4,419.9,357.1,428.1,357.1z"/>
	<path class="st0" d="M290.4,357.1c8.3,0,15-6.7,15-15v-17.2c0-8.3-6.7-15-15-15s-15,6.7-15,15v17.2
		C275.4,350.4,282.1,357.1,290.4,357.1z"/>
	<path class="st0" d="M290.4,271c8.3,0,15-6.7,15-15v-17.2c0-8.3-6.7-15-15-15s-15,6.7-15,15V256C275.4,264.3,282.1,271,290.4,271z"
		/>
	<path class="st0" d="M221.6,309.9c-8.3,0-15,6.7-15,15v17.2c0,8.3,6.7,15,15,15s15-6.7,15-15v-17.2
		C236.6,316.6,229.9,309.9,221.6,309.9z"/>
	<path class="st0" d="M221.6,223.8c-8.3,0-15,6.7-15,15V256c0,8.3,6.7,15,15,15s15-6.7,15-15v-17.2
		C236.6,230.5,229.9,223.8,221.6,223.8z"/>
</g>
</svg>
