<?xml version="1.0" encoding="UTF-8"?>
<svg id="Capa_1" data-name="Capa 1" xmlns="http://www.w3.org/2000/svg" viewBox="0 0 793.32 800.01">
  <defs>
    <style>
      .cls-1 {
        stroke: #e41714;
        stroke-miterlimit: 10;
        stroke-width: 29px;
      }
    </style>
  </defs>
  <g>
    <path d="M724.2,280.58h-243.42v-107.79h-169.57v107.79H67.81c-12.72,0-23.02,10.3-23.02,23s10.3,23,23.02,23h243.4v107.79h56.75v34.92c0,8.18,3.59,15.51,9.21,20.64-3.65.61-7.47,1.09-11.28,1.51-16.33,1.9-34.85,4.05-38.76,21.39l-.17,1.47c-.09,4.69,1.64,8.86,5,12.09,10.41,10,33.92,9.17,71.46,6.93,29.46-1.73,66.12-3.89,76.96,5.99,1.85,1.7,2.73,3.63,2.8,6.28.47,14.2-22.16,17.06-54.21,19.56-25.93,2.02-50.38,3.94-61.62,17.12-4.39,5.14-6.31,11.47-5.7,18.82l8.47-.71c-2.89.38-5.83.74-8.47,1.19v23.79l60.77.29c45.23,0,70.47,24.98,70.18,68.7,0,50.24-27.9,76.05-74.86,75.76-7.34,0-14.97,0-19.97-.89v-109.89h-36.11v136.91c11.74,1.5,27.6,2.66,48.74,2.66,38.45,0,69.89-9.11,89.55-27.02,18.79-17.03,30.82-43.44,30.82-78.68s-11.73-57.26-30.82-72.81c-18.19-15.27-43.74-22.9-80.74-22.9-15.38,0-30.07.78-43.03,2.17-.23-3.31.47-5.83,2.25-7.95,7.3-8.57,30.87-10.42,51.68-12.05,32.13-2.5,68.58-5.33,67.61-34.53-.23-6.48-2.8-12.21-7.56-16.51-15.38-14.05-52.08-11.86-87.6-9.77-23.91,1.42-53.57,3.18-60.85-4.01,2.37-5.75,11.52-7.22,25.85-8.86,11.39-1.34,23.83-2.86,32.97-9.05,13.31-2.17,23.5-13.63,23.5-27.55v-34.94h56.73v-107.79h243.42c12.7,0,23-10.3,23-23s-10.32-23.06-23.02-23.06Z"/>
    <path d="M294.9,235.46h4.82v-49.05h-4.82c-13.56,0-24.53,10.97-24.53,24.53s10.97,24.52,24.53,24.52Z"/>
    <path d="M488.34,186.41v49.05h4.82c13.57,0,24.53-10.97,24.53-24.53s-10.97-24.53-24.53-24.53h-4.82Z"/>
    <path d="M408.35,167.3l4-.04c-.31-24.25,5.28-41.69,17.03-53.32,22.34-22.06,65.7-21.04,107.63-19.98,43.7,1.06,88.91,2.15,113.21-23.35,13.63-14.31,19.24-35.04,17.18-63.32l-14.47,1.06c1.74,23.96-2.57,41.05-13.2,52.23-13.02,13.65-34.73,17.9-60.03,18.95,5.68-2.96,10.93-6.6,15.4-11.44,13.52-14.63,18.98-36.91,16.7-68.08l-14.5,1.06c1.99,26.94-2.24,45.65-12.89,57.17-16.04,17.34-45.78,17.51-77.28,17.69-34.25.2-69.68.41-92.09,23.22-14.66,14.91-21.58,37.36-21.2,68.62l14.53-.19c-.01-.1,0-.17,0-.28Z"/>
    <path d="M317.26,694.61v-.58c23.48-8.21,35.23-24.65,35.23-44.63,0-24.97-20.26-46.69-59.61-46.69-22.9,0-44.05,7.05-54.9,14.68l8.23,26.14c7.92-5.28,23.48-12.03,39.05-12.03,20.84,0,30.53,10.87,30.53,23.78,0,19.08-21.14,26.73-37.87,26.73h-16.15v26.42h16.73c22.03,0,43.16,9.69,43.16,32.29.29,14.98-10.87,30.56-38.45,30.56-18.19,0-36.11-7.35-43.45-11.77l-8.23,27.32c10.27,6.76,30.24,13.2,53.44,13.2,47.27,0,74.29-25.53,74.29-57.82,0-25.85-18.79-43.47-41.98-47.58Z"/>
  </g>
  <path class="cls-1" d="M10.29,11.14c257.14,259.24,514.29,518.48,771.43,777.71"/>
  <path class="cls-1" d="M783.12,14.74C525.51,269.71,267.9,524.68,10.29,779.64"/>
</svg>