<svg id="Capa_1" enable-background="new 0 0 511.996 511.996" viewBox="0 0 511.996 511.996" xmlns="http://www.w3.org/2000/svg"><g><path d="m15 412.274h125.349c11.342-.749 21.236 8.812 21.046 20.2 0 10.483-7.806 19.096-17.804 19.704h-48.087c-8.284 0-15 6.716-15 15s6.716 15 15 15h321.988c8.284 0 15-6.716 15-15s-6.716-15-15-15h-48.086c-9.998-.609-17.804-9.222-17.804-19.705-.244-10.952 9.306-20.67 20.277-20.2h125.117c8.284 0 15-6.716 15-15v-352.455c0-8.284-6.716-15-15-15h-481.996c-8.284 0-15 6.716-15 15v352.456c0 8.284 6.716 15 15 15zm310.596 39.904h-138.199c2.569-6.049 3.998-12.71 3.998-19.705 0-7.088-1.445-13.927-4.18-20.2h138.568c-2.733 6.278-4.181 13.118-4.181 20.2 0 6.995 1.429 13.655 3.994 19.705zm-295.596-392.36h451.996v322.456h-451.996z"/><path d="m400.541 151.712c-5.155-6.485-14.591-7.563-21.076-2.408s-7.564 14.591-2.408 21.076l40.274 50.666-40.274 50.666c-5.155 6.485-4.077 15.921 2.408 21.076 2.76 2.193 6.053 3.258 9.324 3.258 4.416 0 8.791-1.941 11.752-5.666l47.694-60c4.344-5.465 4.344-13.203 0-18.668z"/><path d="m132.531 149.304c-6.485-5.154-15.922-4.077-21.076 2.408l-47.694 60c-4.344 5.465-4.344 13.203 0 18.668l47.694 60c2.962 3.725 7.336 5.666 11.752 5.666 3.271 0 6.564-1.065 9.324-3.258 6.485-5.155 7.563-14.591 2.408-21.076l-40.274-50.666 40.274-50.666c5.156-6.485 4.078-15.921-2.408-21.076z"/><path d="m329.799 266.046h-147.602c-8.284 0-15 6.716-15 15s6.716 15 15 15h147.602c8.284 0 15-6.716 15-15s-6.716-15-15-15z"/><path d="m329.799 206.046h-147.602c-8.284 0-15 6.716-15 15s6.716 15 15 15h147.602c8.284 0 15-6.716 15-15s-6.716-15-15-15z"/><path d="m329.799 146.046h-147.602c-8.284 0-15 6.716-15 15s6.716 15 15 15h147.602c8.284 0 15-6.716 15-15s-6.716-15-15-15z"/></g><g/><g/><g/><g/><g/><g/><g/><g/><g/><g/><g/><g/><g/><g/><g/></svg>