<svg id="Capa_1" enable-background="new 0 0 512 512" height="512" viewBox="0 0 512 512" width="512" xmlns="http://www.w3.org/2000/svg"><g><path d="m484.887 399.399-117.487-117.478v-252.214c6.871-1.371 12.05-7.432 12.05-14.707 0-8.284-6.716-15-15-15h-88.367c-8.284 0-15 6.716-15 15 0 7.274 5.179 13.335 12.05 14.706v160.481c-15.432-10.323-32.393-18.131-50.333-23.119v-137.361c6.871-1.371 12.05-7.432 12.05-14.707 0-8.284-6.716-15-15-15h-88.367c-8.284 0-15 6.716-15 15 0 7.274 5.179 13.335 12.05 14.706v137.369c-75.42 21.053-128.533 90.002-128.533 169.258 0 96.863 78.804 175.667 175.667 175.667h289.2c25.989 0 47.133-21.145 47.133-47.142 0-24.727-9.628-47.974-27.113-65.459zm-186.147-100.659c2.813-2.812 4.394-6.628 4.394-10.606v-258.134h34.266v258.134c0 3.979 1.581 7.794 4.394 10.606l70.796 70.793h-184.646zm-152.217-105.161c6.989-1.422 12.01-7.567 12.01-14.699v-148.88h34.267v148.88c0 7.132 5.021 13.277 12.01 14.699 25.479 5.183 48.971 17.092 68.324 34.551v45.003h-228.619c19.335-39.945 56.456-70.289 102.008-79.554zm-16.995 280.928c-57.776-19.343-99.528-73.972-99.528-138.174 0-11.366 1.338-22.486 3.862-33.199h218.057l-96.274 96.266c-17.483 17.484-27.111 40.731-27.111 65.466-.001 3.303.344 6.527.994 9.641zm335.339 7.493h-289.2c-9.447 0-17.133-7.687-17.133-17.142 0-16.714 6.508-32.428 18.324-44.244l21.084-21.081h244.65l21.083 21.08c11.817 11.818 18.325 27.531 18.325 44.253 0 9.447-7.686 17.134-17.133 17.134z"/></g></svg>