<svg id="Layer_1" enable-background="new 0 0 512 512" viewBox="0 0 512 512" xmlns="http://www.w3.org/2000/svg"><g><path d="m510.69 240.664-27.72-61.907c-1.74-3.886-5.01-6.766-8.91-8.078v-31.745h22.94c8.284 0 15-6.716 15-15s-6.716-15-15-15h-37.939c-8.284 0-15 6.716-15 15v45.954h-51.093s0-23.874 0-33.851c0-1.825-.009-2.691-1.387-6.417l-27.72-59.907c-2.455-5.305-7.768-8.701-13.613-8.701h-78.883v-31.012h22.939c8.284 0 15-6.716 15-15s-6.716-15-15-15h-37.939c-8.284 0-15 6.716-15 15v46.012h-79.613c-5.846 0-11.159 3.396-13.613 8.701l-27.72 59.907c-.409 1.248-1.387 2.183-1.387 6.417v33.851h-49.373v-30.954h22.94c8.284 0 15-6.716 15-15s-6.716-15-15-15h-37.94c-8.284 0-15 6.716-15 15v46.274c-4.649.969-8.639 4.104-10.63 8.549l-27.719 61.907c-.612 1.537-1.304 3.425-1.31 6.13v250.206c0 8.284 6.716 15 15 15h482c8.284 0 15-6.716 15-15v-250.206c-.014-.5.002-.029-.059-1.164-.141-1.405-.313-2.759-1.251-4.966zm-391.658 241.336h-89.032v-220.206h89.032zm0-250.206h-80.88l14.287-31.907h66.594v31.907zm52.307-140.782h169.321l13.893 30.024h-197.107zm9.268 390.988h-31.575v-80.713h31.575zm61.576 0h-31.575v-80.713h31.575zm61.575 0h-31.575v-80.713h31.575zm59.21 0h-29.21v-80.713h29.21zm0-110.713h-213.936v-21.34l108.207-25.592 105.729 24.197zm0-53.511-102.439-23.443c-2.238-.513-4.564-.504-6.798.025l-104.699 24.762v-168.084h213.936zm30-117.889h66.594l14.287 31.907h-80.881zm89.032 282.113h-89.032v-220.206h89.032z"/><path d="m256 267.524c24.821 0 45.014-20.193 45.014-45.014s-20.193-45.014-45.014-45.014-45.014 20.193-45.014 45.014 20.193 45.014 45.014 45.014zm0-60.028c8.279 0 15.014 6.735 15.014 15.014 0 8.278-6.735 15.014-15.014 15.014s-15.014-6.735-15.014-15.014 6.735-15.014 15.014-15.014z"/></g><g/><g/><g/><g/><g/><g/><g/><g/><g/><g/><g/><g/><g/><g/><g/></svg>