<?xml version="1.0" encoding="UTF-8"?>
<svg id="Capa_1" data-name="Capa 1" xmlns="http://www.w3.org/2000/svg" viewBox="0 0 792.84 794.07">
  <defs>
    <style>
      .cls-1 {
        fill: none;
        stroke: #000;
        stroke-linecap: round;
        stroke-linejoin: round;
        stroke-width: 66.67px;
      }

      .cls-2 {
        stroke: #e41714;
        stroke-miterlimit: 10;
        stroke-width: 43px;
      }
    </style>
  </defs>
  <path class="cls-1" d="M329.75,597.03h133.33M236.42,97.03h320c37.34,0,56.01,0,70.27,7.27,12.54,6.39,22.74,16.59,29.13,29.13,7.27,14.26,7.27,32.93,7.27,70.27v186.67c0,37.34,0,56.01-7.27,70.27-6.39,12.54-16.59,22.74-29.13,29.13-14.26,7.27-32.93,7.27-70.27,7.27H236.42c-37.34,0-56.01,0-70.27-7.27-12.54-6.39-22.74-16.59-29.13-29.13-7.27-14.26-7.27-32.93-7.27-70.27v-186.67c0-37.34,0-56.01,7.27-70.27,6.39-12.54,16.59-22.74,29.13-29.13,14.26-7.27,32.93-7.27,70.27-7.27ZM149.38,697.03h494.08c28.57,0,42.86,0,51.46-6.02,7.51-5.26,12.53-13.37,13.87-22.44,1.53-10.39-4.86-23.17-17.63-48.72l-17.19-34.37c-16.05-32.11-24.08-48.16-36.05-59.89-10.59-10.37-23.35-18.26-37.37-23.09-15.84-5.47-33.79-5.47-69.69-5.47h-268.9c-35.9,0-53.84,0-69.69,5.47-14.01,4.83-26.78,12.72-37.36,23.09-11.97,11.73-20,27.78-36.05,59.89l-17.18,34.37c-12.78,25.56-19.17,38.33-17.63,48.72,1.34,9.07,6.36,17.19,13.87,22.44,8.6,6.02,22.89,6.02,51.47,6.02Z"/>
  <path class="cls-2" d="M15.84,15.18c253.71,254.57,507.43,509.14,761.14,763.71"/>
  <path class="cls-2" d="M15.2,778.25C269.35,524.11,523.49,269.96,777.63,15.82"/>
</svg>