<?xml version="1.0" encoding="UTF-8"?>
<svg id="Capa_1" data-name="Capa 1" xmlns="http://www.w3.org/2000/svg" viewBox="0 0 16 15.93">
  <defs>
    <style>
      .cls-1 {
        fill: #fff;
        stroke: #e41714;
        stroke-miterlimit: 10;
      }
    </style>
  </defs>
  <path d="M6,12.5c0-.28.22-.5.5-.5h3c.28,0,.5.22.5.5s-.22.5-.5.5h-3c-.28,0-.5-.22-.5-.5M3,8.06c0-1.3,1.24-2.3,2.53-2.18,1.64.15,3.3.15,4.94,0,1.3-.12,2.53.87,2.53,2.18v1.16c0,.46-.31.85-.77.94-.85.15-2.34.35-4.24.35s-3.39-.2-4.24-.35c-.45-.08-.77-.48-.76-.94v-1.16ZM7.54,7.24c-.08-.01-.16.01-.22.07l-.92.9c-.63-.04-1.25-.1-1.87-.18-.14-.01-.26.09-.27.22-.01.13.08.25.21.27.55.08,1.23.15,2.02.19.07,0,.14-.02.19-.07l.75-.74.85,1.71c.06.12.21.17.34.11.03-.01.05-.03.07-.05l.93-.97c.64-.04,1.28-.1,1.92-.19.14-.02.23-.15.2-.29-.02-.13-.14-.22-.27-.21-.54.07-1.21.15-1.98.19-.06,0-.12.03-.17.08l-.75.78-.84-1.7c-.04-.07-.1-.12-.18-.14"/>
  <path d="M8.5,1.87c.48-.28.64-.89.37-1.37-.28-.48-.89-.64-1.37-.37-.48.28-.64.89-.37,1.37.09.15.21.28.37.37v1.13h-2C3.01,3,1,5.01,1,7.5v.5c-.55,0-1,.45-1,1v2c0,.55.45,1,1,1v1c0,1.1.9,2,2,2h10c1.1,0,2-.9,2-2v-1c.55,0,1-.45,1-1v-2c0-.55-.45-1-1-1v-.5c0-2.49-2.01-4.5-4.5-4.5h-2v-1.13ZM14,7.5v5.5c0,.55-.45,1-1,1H3c-.55,0-1-.45-1-1v-5.5c0-1.93,1.57-3.5,3.5-3.5h5c1.93,0,3.5,1.57,3.5,3.5"/>
  <line class="cls-1" x1=".38" y1=".42" x2="15.65" y2="15.56"/>
  <line class="cls-1" x1=".37" y1="15.58" x2="15.63" y2=".42"/>
</svg>