<?xml version="1.0" encoding="utf-8"?>
<!-- Generator: Adobe Illustrator 25.2.1, SVG Export Plug-In . SVG Version: 6.00 Build 0)  -->
<svg version="1.1" id="Capa_1" xmlns="http://www.w3.org/2000/svg" xmlns:xlink="http://www.w3.org/1999/xlink" x="0px" y="0px"
	 viewBox="0 0 512 512" style="enable-background:new 0 0 512 512;" xml:space="preserve">
<style type="text/css">
	.st0{fill:#1D1D1B;stroke:#1D1D1B;stroke-width:3;stroke-miterlimit:10;}
</style>
<path class="st0" d="M343.2,343.7h-59.9c-8.3,0-15,6.7-15,15V419c0,8.3,6.7,15,15,15h59.9c8.3,0,15-6.7,15-15v-60.3
	C358.2,350.4,351.5,343.7,343.2,343.7z M328.2,404h-30v-30.3h30V404z"/>
<path class="st0" d="M458.6,482h-32V336.3l14.3,8.6c7.2,4.1,16.4,1.6,20.5-5.5c4-7,1.8-15.9-5.1-20.2L261,202.1
	c-4.7-2.8-10.7-2.8-15.4,0L50.3,319.1c-7,4.4-9.2,13.6-4.8,20.7c4.3,6.9,13.2,9.1,20.2,5.1l14.3-8.6V482H48c-8.3,0-15,6.7-15,15
	s6.7,15,15,15h410.6c8.3,0,15-6.7,15-15S466.9,482,458.6,482z M178.4,482V373.7h30V482H178.4z M238.3,482V358.7c0-8.3-6.7-15-15-15
	h-59.9c-8.3,0-15,6.7-15,15V482H110V318.3l143.3-85.9l143.3,85.9V482H238.3z"/>
<path class="st0" d="M384.4,239.8c4.8,3,10.9,3,15.7,0c0.8-0.5,20.5-12.8,39.9-37.7c32.3-41.5,39.1-85.5,39.1-115.2
	c0-47.9-38.9-86.8-86.8-86.8s-86.8,38.9-86.8,86.8c0,53.8,21.2,92.3,39.1,115.2C363.9,227,383.5,239.3,384.4,239.8z M392.2,30
	c31.4,0.1,56.8,25.5,56.8,56.9c0,35.9-10.8,68.1-32,95.8c-7.3,9.5-15.6,18.1-24.8,25.7c-9.2-7.6-17.6-16.2-24.8-25.7
	c-21.2-27.7-32-60-32-95.8C335.4,55.5,360.8,30,392.2,30z"/>
<ellipse class="st0" cx="392.9" cy="88" rx="15" ry="15"/>
</svg>
