<?xml version="1.0" encoding="utf-8"?>
<!-- Generator: Adobe Illustrator 24.1.1, SVG Export Plug-In . SVG Version: 6.00 Build 0)  -->
<svg version="1.1" id="Capa_1" xmlns="http://www.w3.org/2000/svg" xmlns:xlink="http://www.w3.org/1999/xlink" x="0px" y="0px"
	 viewBox="0 0 30 36" style="enable-background:new 0 0 30 36;" xml:space="preserve">
<style type="text/css">
	.st0{fill-rule:evenodd;clip-rule:evenodd;}
	.st1{fill-rule:evenodd;clip-rule:evenodd;fill:#D3A40D;}
</style>
<path class="st0" d="M6.4,9.8c0-4.8,3.9-8.7,8.7-8.7c4.8,0,8.7,3.9,8.7,8.7c0,4.4-3.3,8.1-7.6,8.7v12.1c0,0.6-0.5,1.1-1.1,1.1
	c-0.6,0-1.1-0.5-1.1-1.1V18.5C9.6,17.9,6.4,14.2,6.4,9.8L6.4,9.8z M11.8,28.5c0.1,0.6-0.3,1.2-0.9,1.3c-1.6,0.3-2.8,0.6-3.6,1.1
	C7,31,6.7,31.2,6.5,31.4c-0.1,0.1-0.1,0.1-0.1,0.2v0l0,0c0,0,0,0,0,0.1c0.1,0.1,0.2,0.2,0.3,0.3c0.4,0.3,0.9,0.6,1.8,0.9
	c1.6,0.5,4,0.9,6.6,0.9s5-0.4,6.6-0.9c0.8-0.3,1.4-0.6,1.8-0.9c0.1-0.1,0.2-0.2,0.3-0.3c0,0,0,0,0-0.1l0,0v0c0-0.1-0.1-0.1-0.1-0.2
	c-0.2-0.2-0.5-0.4-0.8-0.6c-0.8-0.4-2.1-0.8-3.6-1.1c-0.6-0.1-1-0.6-0.9-1.2s0.6-1,1.2-0.9c0,0,0,0,0.1,0c1.7,0.3,3.2,0.7,4.3,1.3
	c1,0.5,2.1,1.4,2.1,2.7c0,0.9-0.6,1.6-1.2,2.1c-0.6,0.5-1.5,0.9-2.4,1.2c-1.9,0.6-4.5,1-7.3,1s-5.4-0.4-7.3-1
	c-1-0.3-1.8-0.7-2.4-1.2c-0.6-0.5-1.2-1.2-1.2-2.1c0-1.3,1.1-2.2,2.1-2.7c1.1-0.6,2.6-1,4.3-1.3C11.1,27.5,11.7,27.9,11.8,28.5z"/>
<ellipse class="st1" cx="15" cy="9.7" rx="6.8" ry="7.4"/>
</svg>
