<?xml version="1.0" encoding="utf-8"?>
<!-- Generator: Adobe Illustrator 25.2.1, SVG Export Plug-In . SVG Version: 6.00 Build 0)  -->
<svg version="1.1" id="Capa_1" xmlns="http://www.w3.org/2000/svg" xmlns:xlink="http://www.w3.org/1999/xlink" x="0px" y="0px"
	 viewBox="0 0 512 512" style="enable-background:new 0 0 512 512;" xml:space="preserve">
<style type="text/css">
	.st0{fill:#F9B019;stroke:#F9B019;stroke-width:3;stroke-miterlimit:10;}
</style>
<g>
	<path class="st0" d="M343.2,343.7h-59.9c-8.3,0-15,6.7-15,15V419c0,8.3,6.7,15,15,15h59.9c8.3,0,15-6.7,15-15v-60.3
		C358.2,350.4,351.5,343.7,343.2,343.7z M328.2,404h-30v-30.3h30V404z"/>
	<path class="st0" d="M458.6,482h-32V336.3l14.3,8.6c7,4.2,16.3,2,20.6-5.2c4.3-7.1,1.9-16.3-5.2-20.6L261,202.1
		c-4.6-2.8-10.8-2.8-15.4,0l-195.3,117c-7.1,4.3-9.4,13.5-5.2,20.6c4.3,7.2,13.6,9.4,20.6,5.2l14.3-8.6V482H48c-8.3,0-15,6.7-15,15
		s6.7,15,15,15h410.6c8.3,0,15-6.7,15-15S466.9,482,458.6,482z M178.4,482V373.7h30V482H178.4z M238.3,482V358.7c0-8.3-6.7-15-15-15
		h-59.9c-8.3,0-15,6.7-15,15V482H110V318.3l143.3-85.9l143.3,85.9V482H238.3z"/>
	<path class="st0" d="M384.4,239.8c4.8,3,10.9,3,15.7,0c0.8-0.5,20.5-12.8,39.9-37.7c32.3-41.5,39.1-85.5,39.1-115.2
		C479,39,440.1,0,392.2,0s-86.8,39-86.8,86.9c0,53.8,21.2,92.3,39.1,115.2C363.9,227,383.5,239.3,384.4,239.8L384.4,239.8z
		 M392.2,30c31.3,0,56.8,25.5,56.8,56.9c0,35.9-10.8,68.1-32,95.8c-9.2,12-18.5,20.5-24.8,25.7c-6.3-5.1-15.6-13.7-24.8-25.7
		c-21.2-27.7-32-60-32-95.8C335.4,55.5,360.9,30,392.2,30L392.2,30z"/>
	<ellipse class="st0" cx="392.9" cy="88" rx="15" ry="15"/>
</g>
</svg>
