<svg id="Capa_1" enable-background="new 0 0 512.004 512.004" height="512" viewBox="0 0 512.004 512.004" width="512" xmlns="http://www.w3.org/2000/svg"><g><path d="m504.708 146.436-241-144.311c-4.637-2.822-10.774-2.818-15.412 0l-241 144.311c-7.107 4.256-9.419 13.468-5.163 20.575 4.281 7.171 13.586 9.381 20.575 5.163l22.969-13.754v211.268c0 8.284 6.716 15 15 15h150.325v82.306c0 24.813 20.187 45 45 45s45-20.187 45-45v-82.306h150.325c8.284 0 15-6.716 15-15v-211.268l22.969 13.754c6.989 4.218 16.294 2.007 20.575-5.163 4.256-7.108 1.945-16.32-5.163-20.575zm-343.276 75.328v-50.243h123.896c17.435 0 33.818 6.785 46.138 19.113 10.023 10.017 16.382 22.726 18.406 36.505-7.122-3.444-15.104-5.375-23.53-5.375zm94.57 260.23c-8.271 0-15-6.729-15-15v-215.23h30v215.23c0 8.272-6.729 15-15 15zm180.325-127.305h-135.325v-102.925h25.34c13.36 0 24.23 10.87 24.23 24.23 0 8.284 6.716 15 15 15s15-6.716 15-15v-39.23c0-25.452-9.908-49.37-27.893-67.344-17.98-17.991-41.899-27.899-67.351-27.899h-138.896c-8.284 0-15 6.716-15 15v80.243c0 8.284 6.716 15 15 15h64.57v102.925h-135.325v-214.233l180.325-107.978 180.325 107.979z"/></g></svg>